<svg viewBox="0 0 151 33" version="1.1" xmlns="http://www.w3.org/2000/svg" xmlns:xlink="http://www.w3.org/1999/xlink">
    <g id="Welcome" stroke="none" stroke-width="1" fill="none" fill-rule="evenodd">
        <g id="Desktop-HD-Copy" transform="translate(-486.000000, -22.000000)" fill-rule="nonzero">
            <g id="Group" transform="translate(486.000000, 22.000000)">
                <path d="M26.6663866,0.608482143 L22.4574454,24.3196429 L16.1239328,24.3196429 L18.9568403,8.31205357 L13.5938487,24.3196429 L9.1017479,24.3196429 L9.21929412,8.678125 L6.43401681,24.3196429 L0.100504202,24.3196429 L4.30944538,0.608482143 L13.6847395,0.608482143 C13.7096471,2.034375 13.6982857,3.71428571 13.6502185,5.64910714 L13.6082689,11.6803571 L17.2386555,0.608482143 L26.6663866,0.608482143 Z" id="Shape" fill="#FFFFFF"></path>
                <polygon id="Shape" fill="#FFFFFF" points="36.8203697 0.608482143 32.6114286 24.3196429 25.3655126 24.3196429 29.5744538 0.608482143"></polygon>
                <polygon id="Shape" fill="#FFFFFF" points="55.9069916 0.608482143 51.6980504 24.3196429 45.3474958 24.3196429 43.4916639 13.5401786 41.5781513 24.3196429 35.5199328 24.3196429 39.7288739 0.608482143 45.7870924 0.608482143 47.9536134 11.2852679 49.8487731 0.608482143"></polygon>
                <polygon id="Shape" fill="#FFFFFF" points="66.0614118 0.608482143 61.8524706 24.3196429 54.6065546 24.3196429 58.8154958 0.608482143"></polygon>
                <polygon id="Shape" fill="#FFFFFF" points="85.1475966 0.608482143 80.9386555 24.3196429 74.5881008 24.3196429 72.7322689 13.5401786 70.8187563 24.3196429 64.7605378 24.3196429 68.969479 0.608482143 75.0276975 0.608482143 77.1942185 11.2852679 79.0893782 0.608482143"></polygon>
                <path d="M103.132168,9.33705357 L95.8866891,9.33705357 L96.268605,7.184375 C96.5098151,5.82723214 96.5910924,4.97767857 96.5146218,4.63616071 C96.4372773,4.29464286 96.1410084,4.12366071 95.6245042,4.12366071 C95.177042,4.12366071 94.8466891,4.27008929 94.6343193,4.56339286 C94.4215126,4.85625 94.2082689,5.60803571 93.9932773,6.81875 L91.9731429,18.1982143 C91.7843697,19.2629464 91.7397983,19.9629464 91.8407395,20.3 C91.9416807,20.6370536 92.2331429,20.8049107 92.7151261,20.8049107 C93.2425546,20.8049107 93.634958,20.6147321 93.8918992,20.2339286 C94.1492773,19.853125 94.3756303,19.1111607 94.571395,18.0080357 L95.0704202,15.1959821 L93.6074286,15.1959821 L94.2471597,11.5928571 L102.731899,11.5928571 L100.472739,24.3200893 L95.9194622,24.3200893 L95.5510924,22.6209821 C94.9275294,23.353125 94.206958,23.9026786 93.3898151,24.26875 C92.5726723,24.6348214 91.6532773,24.8178571 90.6316303,24.8178571 C89.4142185,24.8178571 88.3191597,24.5665179 87.3464538,24.0638393 C86.3737479,23.5611607 85.6776471,22.9388393 85.2581513,22.1964286 C84.8386555,21.4544643 84.6324034,20.6758929 84.639395,19.8607143 C84.6463866,19.0455357 84.794521,17.8227679 85.0842353,16.1919643 L86.3348571,9.14732143 C86.7368739,6.88214286 87.1721008,5.23705357 87.6414118,4.21160714 C88.1098487,3.18616071 89.1004706,2.246875 90.6115294,1.39196429 C92.1230252,0.537946429 93.9570084,0.110267857 96.113916,0.110267857 C98.2367395,0.110267857 99.9317647,0.48125 101.200303,1.22366071 C102.467966,1.965625 103.223933,2.846875 103.467328,3.86696429 C103.710723,4.8875 103.660034,6.36875 103.315261,8.31205357 L103.132168,9.33705357 Z" id="Shape" fill="#FFFFFF"></path>
                <path d="M150.947159,5.15932454 C150.962318,4.95756463 150.96535,4.75098002 150.950191,4.5391321 C150.810293,2.63469393 149.435563,1.08596727 147.850337,1.00745634 L147.849904,1 L139.872229,1 L136.796196,1 L135.516754,1 L133.800724,1 L128.682955,1 L123.65614,1 L122.61145,1 L119.595188,16.5640231 C119.525889,16.9179802 119.267748,17.1578991 118.956333,17.1578991 L114.672324,17.1578991 C114.187227,17.1578991 113.800882,16.5951643 113.906997,16.0433948 L116.798953,1 L110.727448,1 L107,20.0176266 L107.052841,20.0768387 C107.037682,20.2785986 107.03465,20.4851833 107.049809,20.6970312 C107.189707,22.6014693 108.564437,24.150196 110.149663,24.2287069 L110.150096,24.2361633 L122.075245,24.2361633 C123.36335,24.2361633 124.384219,23.2541188 124.693035,21.8843444 L124.702563,21.8768881 L126.254873,13.7349982 L124.104855,13.7349982 L131.135725,3.26234272 L133.565106,13.7349982 L131.304209,13.7349982 L130.072843,20.0180652 L130.092334,20.0399956 L127.601016,33 L133.685947,33 L135.390282,24.2366019 L145.148955,24.2366019 C146.437059,24.2366019 147.457928,23.2545574 147.766744,21.884783 L147.776273,21.8773267 L149.866087,11.0072919 L149.865653,11.0072919 L151,5.21941391 L150.947159,5.15932454 Z M144.09257,9.19232983 L143.082529,14.445544 L142.667599,16.5635845 C142.598299,16.9175416 142.340158,17.1574605 142.028744,17.1574605 L137.744734,17.1574605 C137.259637,17.1574605 136.873292,16.5947257 136.979407,16.0429562 L137.989448,10.789742 L138.404812,8.67170153 C138.474111,8.31774446 138.732252,8.0778256 139.043667,8.0778256 L143.327676,8.0778256 C143.81234,8.07826421 144.198685,8.64056032 144.09257,9.19232983 Z" id="Shape" fill="#00CEFD"></path>
            </g>
        </g>
    </g>
</svg>
