<svg viewBox="0 0 121 56" version="1.1" xmlns="http://www.w3.org/2000/svg" xmlns:xlink="http://www.w3.org/1999/xlink">
    <g id="Welcome" stroke="none" stroke-width="1" fill="none" fill-rule="evenodd">
        <g id="Desktop-HD-Copy-2" transform="translate(-631.000000, -2038.000000)" fill="#FFFFFF" fill-rule="nonzero">
            <g id="Group-7" transform="translate(0.000000, 1610.000000)">
                <path d="M738.80692,428.974447 C731.808028,428.974447 726.114074,434.413969 726.114074,441.100118 C726.114074,443.538724 726.874062,445.809597 728.175964,447.712883 L714.462796,460.813282 C712.47025,459.569555 710.093158,458.843527 707.540486,458.843527 C704.895355,458.843527 702.437011,459.621525 700.401505,460.949342 L686.547079,447.711991 C687.848748,445.808704 688.608269,443.538055 688.608269,441.099895 C688.608269,434.413746 682.914314,428.974224 675.915422,428.974224 C668.916531,428.974224 663.222576,434.413746 663.222576,441.099895 C663.222576,443.538055 663.98233,445.808035 665.283532,447.711321 L651.569897,460.81239 C649.577819,459.569109 647.201193,458.843527 644.649222,458.843527 C637.65033,458.843527 631.956376,464.283272 631.956376,470.96942 C631.956376,477.655569 637.65033,483.09509 644.649222,483.09509 C651.648114,483.09509 657.342069,477.655569 657.342069,470.96942 C657.342069,468.530814 656.582081,466.259941 655.280179,464.356432 L668.993346,451.256033 C670.985892,452.49976 673.362984,453.225788 675.915656,453.225788 C678.468094,453.225788 680.845186,452.49976 682.837498,451.256033 L696.768506,464.566322 C695.552993,466.426113 694.847873,468.620034 694.847873,470.969197 C694.847873,477.655346 700.541828,483.094867 707.54072,483.094867 C714.539612,483.094867 720.233566,477.655346 720.233566,470.969197 C720.233566,468.531037 719.473812,466.260833 718.17261,464.35777 L731.886479,451.256702 C733.878791,452.499983 736.255416,453.225565 738.807154,453.225565 C745.806046,453.225565 751.5,447.786043 751.5,441.099895 C751.5,434.413523 745.805812,428.974447 738.80692,428.974447 Z M644.649222,478.082932 C640.543187,478.082932 637.202743,474.891755 637.202743,470.96942 C637.202743,467.046862 640.543187,463.855685 644.649222,463.855685 C648.755024,463.855685 652.095701,467.046862 652.095701,470.96942 C652.095701,474.891755 648.755258,478.082932 644.649222,478.082932 Z M675.915656,448.21363 C671.809854,448.21363 668.469177,445.022453 668.469177,441.099895 C668.469177,437.177559 671.809621,433.986159 675.915656,433.986159 C680.021691,433.986159 683.362135,437.177336 683.362135,441.099895 C683.362135,445.022453 680.021691,448.21363 675.915656,448.21363 Z M707.540486,478.082932 C703.434685,478.082932 700.094007,474.891755 700.094007,470.969197 C700.094007,467.046639 703.434451,463.855462 707.540486,463.855462 C711.646288,463.855462 714.986966,467.046639 714.986966,470.969197 C714.986732,474.891755 711.646288,478.082932 707.540486,478.082932 Z M738.80692,448.21363 C734.701118,448.21363 731.360441,445.022453 731.360441,441.099895 C731.360441,437.177559 734.700885,433.986159 738.80692,433.986159 C742.912722,433.986159 746.253399,437.177336 746.253399,441.099895 C746.253399,445.022453 742.912722,448.21363 738.80692,448.21363 Z M673.230132,459.763385 C674.25489,460.741906 674.25489,462.328907 673.230132,463.307428 L667.894108,468.405014 C667.382079,468.894162 666.710581,469.139071 666.039317,469.139071 C665.368053,469.139071 664.696789,468.894385 664.184527,468.405014 C663.160003,467.42627 663.160003,465.839492 664.184293,464.860971 L669.520318,459.763385 C670.544842,458.784865 672.205608,458.784865 673.230132,459.763385 Z M719.270215,443.753298 C720.294505,444.731819 720.294505,446.318597 719.269981,447.29734 L713.933956,452.394926 C713.421694,452.884075 712.750664,453.128984 712.079166,453.128984 C711.407902,453.128984 710.736638,452.884298 710.224142,452.39515 C709.199851,451.416406 709.199851,449.829628 710.224142,448.851107 L715.560167,443.753521 C716.585158,442.774777 718.24569,442.774777 719.270215,443.753298 Z" id="Combined-Shape"></path>
            </g>
        </g>
    </g>
</svg>
