<svg viewBox="0 0 168 168" version="1.1" xmlns="http://www.w3.org/2000/svg" xmlns:xlink="http://www.w3.org/1999/xlink">
    <g id="Page-1" stroke="none" stroke-width="1" fill="none" fill-rule="evenodd">
        <g id="Energy_Icon" fill-rule="nonzero" fill="#FFAF0D">
            <path d="M136.079,0.674 L32.193,0.674 C14.858,0.674 0.751,14.777 0.751,32.112 L0.751,135.998 C0.751,153.333 14.857,167.436 32.193,167.436 L136.079,167.436 C153.414,167.436 167.517,153.333 167.517,135.998 L167.517,32.112 C167.517,14.777 153.414,0.674 136.079,0.674 Z M160.128,135.998 C160.128,149.26 149.341,160.047 136.079,160.047 L32.193,160.047 C18.931,160.047 8.14,149.26 8.14,135.998 L8.14,32.112 C8.14,18.85 18.931,8.063 32.193,8.063 L136.079,8.063 C149.341,8.063 160.128,18.85 160.128,32.112 L160.128,135.998 Z" id="Shape"></path>
            <path d="M113.133,50.844 L101.166,50.844 L101.166,32.148 C101.166,30.106 99.514,28.454 97.472,28.454 C95.43,28.454 93.778,30.106 93.778,32.148 L93.778,50.844 L73.311,50.844 L73.311,32.148 C73.311,30.106 71.659,28.454 69.617,28.454 C67.575,28.454 65.923,30.106 65.923,32.148 L65.923,50.844 L54.025,50.844 C51.983,50.844 50.331,52.496 50.331,54.538 L50.331,92.737 C50.331,92.896 50.345,93.069 50.374,93.246 C50.56,104.877 58.893,114.56 69.904,116.834 C69.8,117.176 69.69,117.518 69.69,117.894 C69.69,124.244 74.011,129.554 79.85,131.184 L79.85,148.633 C79.85,150.675 81.502,152.327 83.544,152.327 C85.586,152.327 87.238,150.675 87.238,148.633 L87.238,131.184 C93.077,129.555 97.398,124.244 97.398,117.894 C97.398,117.522 97.289,117.184 97.187,116.846 C101.879,115.888 106.266,113.567 109.676,110.152 C114.261,105.556 116.87,99.199 116.83,92.737 L116.83,54.538 C116.828,52.496 115.175,50.844 113.133,50.844 Z M90.008,117.895 C90.008,121.459 87.107,124.36 83.543,124.36 C79.979,124.36 77.078,121.459 77.078,117.895 C77.078,117.699 76.996,117.531 76.967,117.343 L90.12,117.343 C90.09,117.53 90.008,117.699 90.008,117.895 Z M109.439,92.759 C109.464,97.287 107.646,101.724 104.446,104.932 C101.242,108.136 96.787,109.828 92.263,109.954 L74.863,109.954 C65.432,109.954 57.758,102.28 57.758,92.849 C57.758,92.669 57.744,92.488 57.718,92.308 L57.718,58.232 L109.439,58.232 L109.439,92.759 L109.439,92.759 Z" id="Shape"></path>
        </g>
    </g>
</svg>
