<svg viewBox="0 0 167 167" version="1.1" xmlns="http://www.w3.org/2000/svg" xmlns:xlink="http://www.w3.org/1999/xlink">
    <g id="Page-1" stroke="none" stroke-width="1" fill="none" fill-rule="evenodd">
        <g id="Guard_Icon" fill-rule="nonzero" fill="#FFAF0D">
            <path d="M135.463,0.054 L31.577,0.054 C14.242,0.054 0.135,14.157 0.135,31.492 L0.135,135.378 C0.135,152.713 14.241,166.82 31.577,166.82 L135.463,166.82 C152.798,166.82 166.901,152.714 166.901,135.378 L166.901,31.492 C166.901,14.157 152.799,0.054 135.463,0.054 Z M159.513,135.378 C159.513,148.64 148.726,159.431 135.464,159.431 L31.577,159.431 C18.315,159.431 7.524,148.64 7.524,135.378 L7.524,31.492 C7.524,18.23 18.315,7.443 31.577,7.443 L135.463,7.443 C148.725,7.443 159.512,18.23 159.512,31.492 L159.512,135.378 L159.513,135.378 Z" id="Shape"></path>
            <path d="M123.236,42.074 C84.658,16.96 43.378,40.959 41.639,41.995 C40.517,42.662 39.832,43.867 39.832,45.17 L39.832,105.965 C39.832,106.705 40.056,107.43 40.471,108.043 C50.659,123.019 64.567,135.293 80.694,143.54 C81.221,143.811 81.798,143.944 82.375,143.944 C82.952,143.944 83.529,143.811 84.056,143.54 C100.183,135.293 114.087,123.019 124.276,108.043 C124.691,107.43 124.915,106.705 124.915,105.965 L124.915,45.17 C124.914,43.921 124.283,42.756 123.236,42.074 Z M117.525,104.817 C108.459,117.827 96.351,128.592 82.374,136.078 C68.394,128.592 56.286,117.83 47.22,104.817 L47.22,47.374 C55.114,43.33 87.512,28.971 117.525,47.208 L117.525,104.817 Z" id="Shape"></path>
            <polygon id="Shape" points="65.167 77.738 59.907 82.412 82.362 102.944 107.13 70.954 101.068 67.144 81.388 92.569"></polygon>
        </g>
    </g>
</svg>
