<svg viewBox="0 0 116 73" version="1.1" xmlns="http://www.w3.org/2000/svg" xmlns:xlink="http://www.w3.org/1999/xlink">
    <g id="Welcome" stroke="none" stroke-width="1" fill="none" fill-rule="evenodd">
        <g id="Desktop-HD-Copy-2" transform="translate(-634.000000, -1794.000000)" fill="#FFFFFF">
            <g id="Group-7" transform="translate(0.000000, 1610.000000)">
                <path d="M744.28447,234.107344 L739.713379,234.107344 C737.740381,234.107344 735.948755,232.92197 735.256287,231.156908 L725.247406,205.660274 C724.798997,204.514753 724.8454,203.271623 725.382375,202.16148 C725.916672,201.05155 726.87417,200.210152 728.077957,199.790518 L744.28447,194.160735 L744.28447,234.107344 Z M720.030473,241.233657 C719.224007,241.824213 718.094731,242.152631 717.592781,241.673111 C717.567126,241.648815 717.527416,241.650946 717.500869,241.627716 C717.455359,241.587437 717.43305,241.533091 717.383524,241.495582 C715.682471,240.212385 708.060418,232.762129 703.349897,228.06901 C702.441479,227.160905 700.933175,227.127658 699.987502,228.000172 C699.03692,228.86821 699.004349,230.306772 699.915221,231.212533 C701.020849,232.315003 709.896216,241.145638 713.44846,244.233963 C713.183207,245.232005 712.214555,245.848562 711.722644,246.084273 C710.198278,246.814635 708.60877,246.692731 708.013792,246.164193 C707.996168,246.148422 707.970067,246.149274 707.951774,246.134143 C707.922772,246.109208 707.909833,246.074469 707.87927,246.051026 C705.025517,243.873151 697.865704,236.6049 696.245856,234.922103 C695.355954,233.996308 693.852558,233.938766 692.88346,234.786771 C691.916593,235.637121 691.851451,237.075682 692.741576,237.999132 C692.81988,238.079904 699.836247,245.31022 703.777335,248.668994 C703.38983,249.732038 702.600764,250.612224 701.588387,251.039317 C700.841486,251.356653 699.672723,251.51905 698.33776,250.57642 C694.920485,247.808415 688.06251,240.834483 686.713492,239.455382 C685.818906,238.536195 684.308371,238.489521 683.350874,239.346691 C682.391146,240.203434 682.340058,241.641995 683.237099,242.558838 C684.836199,244.193896 689.562783,248.979723 693.155629,252.220429 C692.754515,252.267102 692.3331,252.293742 691.932879,252.293742 C690.357425,252.293742 687.650019,251.332357 686.281369,250.47327 C684.612887,249.425358 674.136858,241.957413 665.090159,234.720065 C663.721509,233.623348 660.598265,231.378979 657.739828,229.327698 C656.207877,228.229063 654.796394,227.216316 653.756353,226.451641 L662.665853,203.751144 C664.978615,203.6546 668.061926,203.399922 671.325046,203.124996 C673.17066,202.969632 675.018282,202.818103 676.783807,202.686821 C674.070155,205.348053 670.035593,210.114486 670.567437,214.582551 C670.811496,216.615931 671.975797,218.30981 673.939425,219.481971 C677.827194,221.80626 685.02404,219.857276 688.491287,215.783483 C690.729091,215.474885 692.24208,214.928871 693.891822,214.14736 C696.680433,216.651522 700.419625,219.595351 704.346881,222.687725 C711.183662,228.06901 718.933545,234.169575 720.983286,237.59058 C722.124162,239.493104 720.54157,240.860484 720.030473,241.233657 Z M644.152378,229.560851 L639.581511,229.560851 L639.581511,189.614029 L655.7878,195.244025 C656.991588,195.663659 657.949085,196.505057 658.483606,197.614987 C659.020358,198.724917 659.06676,199.96826 658.618352,201.111437 L648.60947,226.610415 C647.917003,228.375263 646.125376,229.560851 644.152378,229.560851 Z M702.741087,199.75514 C710.139606,203.399282 717.441527,205.459728 720.506768,206.238043 C720.595334,206.578609 720.659807,206.922585 720.790314,207.256544 L730.029985,230.795669 L724.112776,233.922995 C720.942237,229.871154 714.069539,224.450016 707.372412,219.177849 C702.908404,215.663497 698.692917,212.344789 695.994881,209.767313 C695.251325,209.061246 694.110449,208.901406 693.190208,209.369844 C690.766347,210.610843 689.674104,211.123823 686.936581,211.385748 C686.20708,211.456717 685.551645,211.843104 685.16124,212.435791 C683.295102,215.263896 678.108286,216.609324 676.463006,215.628119 C675.528933,215.068678 675.347561,214.500287 675.296474,214.06744 C675.066469,212.1338 677.11621,208.786108 680.515861,205.536025 C688.935234,197.492869 694.953948,195.918977 702.741087,199.75514 Z M748.028124,189.052457 C747.393882,188.626217 746.580277,188.521788 745.850777,188.77945 L726.451193,195.519376 C724.046072,196.353955 722.131078,198.036752 721.060028,200.256825 C720.859248,200.673049 720.72718,201.10547 720.595111,201.537251 C717.263948,200.632556 711.073233,198.743032 704.920889,195.714594 C695.624107,191.138478 688.521627,193.398617 682.42974,197.837485 C679.343083,197.895453 675.088778,198.244118 670.906755,198.596192 C668.239058,198.821034 665.717931,199.027974 663.673545,199.147108 C663.62335,197.974095 663.336012,196.810032 662.805952,195.710119 C661.734457,193.490259 659.819685,191.807462 657.414564,190.97267 L638.015204,184.232744 C637.287711,183.977639 636.469645,184.081855 635.837634,184.505964 C635.200938,184.932205 634.822133,185.626976 634.822133,186.368422 L634.822133,231.834204 C634.822133,233.090548 635.88649,234.107344 637.201822,234.107344 L644.152378,234.107344 C647.108529,234.107344 649.858768,232.775343 651.636563,230.624534 C652.583575,231.312486 653.705489,232.11808 654.881613,232.961823 C657.658623,234.957694 660.698209,237.135569 662.032057,238.203301 C670.892923,245.289547 681.545416,252.941841 683.666991,254.273842 C685.649358,255.517185 689.21878,256.840235 691.932879,256.840235 C692.995005,256.840235 695.669617,256.840235 697.547356,255.324098 C699.483098,256.049986 701.569871,256.014395 703.510298,255.197505 C705.44604,254.382746 707.012346,252.846576 707.923218,250.97943 C709.782441,251.343439 711.917847,251.077039 713.853812,250.149114 C715.66864,249.281075 717.004942,247.966763 717.720611,246.430593 C719.44018,246.581482 721.275978,246.04655 722.919028,244.845618 C725.266368,243.131492 726.340987,240.600051 726.036917,238.102495 L732.073255,234.912299 C733.841011,237.201636 736.650592,238.65405 739.713379,238.65405 L746.663935,238.65405 C747.979267,238.65405 749.043624,237.637041 749.043624,236.380697 L749.043624,190.914915 C749.043624,190.173469 748.664819,189.478698 748.028124,189.052457 Z" id="Page-1"></path>
            </g>
        </g>
    </g>
</svg>
