<svg viewBox="0 0 513 258" version="1.1" xmlns="http://www.w3.org/2000/svg" xmlns:xlink="http://www.w3.org/1999/xlink">
    <g id="Page-1" stroke="none" stroke-width="1" fill="none" fill-rule="evenodd">
        <g id="MiningHotel" fill-rule="nonzero">
            <path d="M234.158,116.651 C233.268,116.651 232.456,116.052 232.223,115.151 C231.947,114.082 232.59,112.991 233.66,112.714 C238.159,111.553 242.253,109.307 245.828,106.038 C246.642,105.29 247.909,105.349 248.654,106.164 C249.399,106.979 249.342,108.244 248.528,108.99 C244.465,112.705 239.799,115.261 234.66,116.587 C234.492,116.631 234.324,116.651 234.158,116.651 Z M256.279,97.671 C255.961,97.671 255.638,97.595 255.338,97.435 C254.364,96.914 253.997,95.702 254.518,94.728 C256.728,90.596 257.716,86.438 257.721,81.246 C257.722,80.142 258.617,79.248 259.721,79.248 C259.721,79.248 259.722,79.248 259.723,79.248 C260.827,79.249 261.722,80.145 261.721,81.25 C261.716,87.134 260.582,91.873 258.045,96.615 C257.684,97.288 256.993,97.671 256.279,97.671 Z M259.889,68.248 C259.881,68.248 259.874,68.248 259.866,68.248 C258.762,68.235 257.876,67.33 257.888,66.226 L257.92,63.405 L257.919,62.868 C257.919,58.538 258.142,54.556 258.58,51.034 C258.717,49.938 259.718,49.162 260.812,49.296 C261.908,49.433 262.686,50.432 262.55,51.528 C262.132,54.887 261.919,58.702 261.919,62.868 L261.92,63.417 L261.888,66.271 C261.876,67.367 260.984,68.248 259.889,68.248 Z M264.78,39.011 C264.431,39.011 264.078,38.92 263.758,38.728 C262.809,38.162 262.499,36.935 263.065,35.986 C266.81,29.708 271.794,28.771 274.432,28.771 C276.47,28.771 277.884,29.292 278.038,29.351 C279.069,29.747 279.584,30.904 279.188,31.935 C278.794,32.961 277.648,33.477 276.619,33.091 C276.577,33.076 275.699,32.772 274.432,32.772 C272.246,32.772 269.096,33.685 266.501,38.036 C266.126,38.662 265.462,39.011 264.78,39.011 Z" id="Shape" fill="#FFAF0D"></path>
            <g id="Group" transform="translate(232.000000, 105.000000)" fill="#FFAF0D">
                <path d="M5.346,102.58 C3.747,103.083 2.01,103.478 0.159,103.775 L0.159,107.821 C2.442,107.486 4.58,107.015 6.546,106.397 C7.6,106.065 8.185,104.943 7.854,103.889 C7.523,102.834 6.4,102.25 5.346,102.58 Z" id="Shape"></path>
                <path d="M21.892,69.176 C21.895,69.176 21.898,69.176 21.901,69.176 C23.002,69.176 23.896,68.286 23.901,67.185 L23.969,52.185 C23.974,51.081 23.083,50.181 21.978,50.176 C21.975,50.176 21.972,50.176 21.969,50.176 C20.868,50.176 19.974,51.066 19.969,52.167 L19.901,67.167 C19.896,68.271 20.787,69.171 21.892,69.176 Z" id="Shape"></path>
                <path d="M22.463,80.138 C22.459,80.138 22.455,80.138 22.452,80.138 C21.352,80.138 20.458,81.026 20.452,82.127 C20.432,85.633 19.739,90.725 16.544,95.07 C15.89,95.96 16.081,97.212 16.971,97.866 C17.328,98.129 17.742,98.255 18.154,98.255 C18.768,98.255 19.375,97.973 19.767,97.44 C23.598,92.229 24.429,86.249 24.452,82.149 C24.458,81.045 23.568,80.144 22.463,80.138 Z" id="Shape"></path>
                <path d="M25.266,20.664 C24.243,20.248 23.076,20.738 22.66,21.763 C20.869,26.163 19.961,31.042 19.961,36.265 C19.961,36.58 19.964,36.899 19.971,37.219 C19.993,38.31 20.885,39.178 21.97,39.178 C21.984,39.178 21.998,39.178 22.012,39.178 C23.116,39.155 23.993,38.24 23.97,37.137 C23.964,36.844 23.961,36.553 23.961,36.265 C23.961,31.562 24.77,27.191 26.365,23.271 C26.781,22.247 26.289,21.081 25.266,20.664 Z" id="Shape"></path>
                <path d="M47.952,2.334 C47.647,1.274 46.538,0.658 45.477,0.966 C45.189,1.049 38.355,3.062 31.799,8.913 C30.975,9.648 30.903,10.913 31.638,11.737 C32.033,12.179 32.581,12.405 33.131,12.405 C33.605,12.405 34.081,12.237 34.462,11.897 C40.283,6.702 46.475,4.841 46.586,4.808 C47.646,4.503 48.258,3.395 47.952,2.334 Z" id="Shape"></path>
            </g>
            <ellipse id="Oval" fill="#F3F3F3" cx="256.471" cy="245.037" rx="256.432" ry="12"></ellipse>
            <g id="Group" transform="translate(291.000000, 231.000000)" fill="#FFFFFF">
                <rect id="Rectangle-path" x="0.055" y="0.637" width="153.25" height="15.583"></rect>
                <polygon id="Shape" points="162.451 4.387 162.451 3.325 160.721 3.325 160.721 2.471 153.638 2.471 153.638 14.037 160.721 14.037 160.721 13.366 162.451 13.366 162.451 12.429 163.93 12.429 163.93 4.387"></polygon>
            </g>
            <g id="Group" transform="translate(57.000000, 231.000000)" fill="#FFFFFF">
                <rect id="Rectangle-path" x="11.3" y="0.57" width="153.25" height="15.583"></rect>
                <polygon id="Shape" points="2.154 4.32 2.154 3.258 3.883 3.258 3.883 2.403 10.967 2.403 10.967 13.97 3.883 13.97 3.883 13.299 2.154 13.299 2.154 12.362 0.675 12.362 0.675 4.32"></polygon>
            </g>
            <g id="Group" transform="translate(55.000000, 0.000000)" fill="#AAAAAA">
                <path d="M172.17,121.877 L166.54,121.877 C165.988,121.877 165.54,121.43 165.54,120.877 L165.54,109.607 C165.54,109.054 165.988,108.607 166.54,108.607 L172.17,108.607 C175.826,108.607 178.8,111.582 178.8,115.237 C178.803,117.009 178.114,118.676 176.862,119.931 C175.61,121.185 173.943,121.877 172.17,121.877 Z M167.54,119.877 L172.17,119.877 C173.408,119.877 174.572,119.395 175.447,118.518 C176.322,117.643 176.802,116.478 176.8,115.24 C176.8,112.685 174.723,110.608 172.17,110.608 L167.54,110.608 L167.54,119.877 Z" id="Shape"></path>
                <path d="M172.17,218.087 C172.087,218.087 172.006,218.077 171.929,218.058 L166.54,218.058 C165.988,218.058 165.54,217.611 165.54,217.058 L165.54,205.828 C165.54,205.275 165.988,204.828 166.54,204.828 L172.17,204.828 C175.826,204.828 178.8,207.803 178.8,211.458 C178.8,215.113 175.826,218.087 172.17,218.087 Z M167.54,216.057 L172.17,216.057 C172.245,216.057 172.319,216.066 172.389,216.081 C174.841,215.966 176.8,213.935 176.8,211.456 C176.8,208.903 174.723,206.826 172.17,206.826 L167.54,206.826 L167.54,216.057 Z" id="Shape"></path>
                <path d="M166.531,232.437 L12.93,232.437 C12.377,232.437 11.93,231.99 11.93,231.437 L11.93,20.437 C11.925,15.156 13.978,10.189 17.71,6.453 C21.443,2.716 26.408,0.658 31.689,0.658 L166.53,0.658 C167.083,0.658 167.53,1.106 167.53,1.658 L167.53,231.438 C167.531,231.99 167.084,232.437 166.531,232.437 Z M13.93,230.437 L165.531,230.437 L165.531,2.657 L31.69,2.657 C26.943,2.657 22.481,4.507 19.125,7.865 C15.771,11.223 13.926,15.688 13.931,20.435 L13.931,230.437 L13.93,230.437 Z" id="Shape"></path>
                <path d="M12.931,81.107 L166.531,81.107" id="Shape_1_"></path>
                <path d="M166.531,82.107 L12.93,82.107 C12.377,82.107 11.93,81.66 11.93,81.107 C11.93,80.554 12.377,80.107 12.93,80.107 L166.531,80.107 C167.084,80.107 167.531,80.554 167.531,81.107 C167.531,81.66 167.084,82.107 166.531,82.107 Z" id="Shape"></path>
                <path d="M12.94,230.437 L166.54,230.437 C167.093,230.437 167.54,230.884 167.54,231.437 L167.54,247.387 C167.54,247.94 167.093,248.387 166.54,248.387 L12.94,248.387 C12.387,248.387 11.94,247.94 11.94,247.387 L11.94,231.437 C11.94,230.885 12.387,230.437 12.94,230.437 Z M165.54,232.437 L13.94,232.437 L13.94,246.387 L165.54,246.387 L165.54,232.437 Z" id="Shape"></path>
                <path d="M159.76,38.637 L148.1,38.637 C147.547,38.637 147.1,38.189 147.1,37.637 L147.1,25.977 C147.1,25.425 147.547,24.977 148.1,24.977 L159.76,24.977 C160.313,24.977 160.76,25.425 160.76,25.977 L160.76,37.637 C160.76,38.189 160.313,38.637 159.76,38.637 Z M149.1,36.637 L158.76,36.637 L158.76,26.977 L149.1,26.977 L149.1,36.637 Z" id="Shape"></path>
                <path d="M159.76,55.387 L148.1,55.387 C147.547,55.387 147.1,54.939 147.1,54.387 L147.1,42.727 C147.1,42.175 147.547,41.727 148.1,41.727 L159.76,41.727 C160.313,41.727 160.76,42.175 160.76,42.727 L160.76,54.387 C160.76,54.939 160.313,55.387 159.76,55.387 Z M149.1,53.387 L158.76,53.387 L158.76,43.727 L149.1,43.727 L149.1,53.387 Z" id="Shape"></path>
                <g transform="translate(30.000000, 234.000000)" id="Shape">
                    <path d="M84.6,8.398 L113.85,8.398 C114.403,8.398 114.85,7.951 114.85,7.398 C114.85,6.845 114.403,6.398 113.85,6.398 L84.6,6.398 C84.047,6.398 83.6,6.845 83.6,7.398 C83.6,7.951 84.047,8.398 84.6,8.398 Z"></path>
                    <path d="M84.94,3.398 L114.18,3.398 C114.733,3.398 115.18,2.951 115.18,2.398 C115.18,1.845 114.733,1.398 114.18,1.398 L84.94,1.398 C84.387,1.398 83.94,1.845 83.94,2.398 C83.94,2.951 84.387,3.398 84.94,3.398 Z"></path>
                    <path d="M17.44,8.668 L46.68,8.668 C47.233,8.668 47.68,8.221 47.68,7.668 C47.68,7.115 47.233,6.668 46.68,6.668 L17.44,6.668 C16.887,6.668 16.44,7.115 16.44,7.668 C16.44,8.221 16.887,8.668 17.44,8.668 Z"></path>
                    <path d="M17.77,3.668 L47.01,3.668 C47.563,3.668 48.01,3.221 48.01,2.668 C48.01,2.115 47.563,1.668 47.01,1.668 L17.77,1.668 C17.217,1.668 16.77,2.115 16.77,2.668 C16.77,3.221 17.217,3.668 17.77,3.668 Z"></path>
                    <path d="M4.821,9.738 C7.259,9.738 9.241,7.756 9.241,5.318 C9.241,2.88 7.259,0.898 4.821,0.898 C2.383,0.898 0.4,2.88 0.4,5.318 C0.4,7.756 2.383,9.738 4.821,9.738 Z M4.821,2.898 C6.155,2.898 7.241,3.984 7.241,5.318 C7.241,6.652 6.155,7.738 4.821,7.738 C3.486,7.738 2.4,6.652 2.4,5.318 C2.4,3.984 3.486,2.898 4.821,2.898 Z"></path>
                </g>
                <path d="M7.3,232.788 L13.93,232.788 L13.93,246.028 L7.3,246.028 C3.645,246.028 0.67,243.053 0.67,239.398 C0.683,235.752 3.657,232.788 7.3,232.788 Z M11.93,234.788 L7.3,234.788 C4.756,234.788 2.679,236.857 2.67,239.402 C2.67,241.951 4.747,244.028 7.3,244.028 L11.93,244.028 L11.93,234.788 Z" id="Shape"></path>
                <g transform="translate(19.000000, 24.000000)" id="Shape">
                    <path d="M56.44,0.977 L1.31,0.977 C0.757,0.977 0.31,1.425 0.31,1.977 L0.31,57.107 C0.31,57.66 0.757,58.107 1.31,58.107 L56.44,58.107 C56.993,58.107 57.44,57.66 57.44,57.107 L57.44,1.977 C57.44,1.425 56.993,0.977 56.44,0.977 Z M55.44,56.107 L2.31,56.107 L2.31,2.977 L55.44,2.977 L55.44,56.107 Z"></path>
                    <path d="M10.169,42.628 C9.798,41.963 9.095,41.507 8.281,41.507 C7.084,41.507 6.11,42.481 6.11,43.677 C6.11,44.873 7.084,45.847 8.281,45.847 C9.13,45.847 9.86,45.352 10.216,44.639 C11.878,44.459 13.367,43.546 14.276,42.11 L16.406,38.729 C19.27,42.318 23.672,44.627 28.61,44.627 C33.526,44.627 37.912,42.339 40.777,38.779 L41.816,40.753 C42.966,42.936 45.117,44.361 47.537,44.614 C47.572,44.689 47.599,44.768 47.643,44.838 C47.657,44.86 47.668,44.883 47.683,44.904 C47.782,45.048 47.902,45.174 48.033,45.29 C48.073,45.326 48.113,45.359 48.156,45.392 C48.303,45.505 48.461,45.606 48.634,45.679 C48.636,45.68 48.638,45.682 48.64,45.683 C48.716,45.715 48.795,45.731 48.873,45.754 C48.929,45.77 48.982,45.793 49.04,45.805 C49.184,45.834 49.329,45.85 49.473,45.85 C49.619,45.85 49.764,45.834 49.907,45.804 C49.916,45.802 49.924,45.798 49.932,45.796 C50.061,45.768 50.188,45.73 50.31,45.678 C50.341,45.665 50.369,45.645 50.4,45.63 C50.496,45.584 50.591,45.538 50.68,45.478 C50.741,45.437 50.793,45.386 50.849,45.339 C50.9,45.296 50.956,45.26 51.003,45.212 C51.005,45.21 51.006,45.208 51.007,45.206 C51.139,45.073 51.247,44.919 51.341,44.756 C51.365,44.714 51.388,44.673 51.41,44.629 C51.491,44.464 51.559,44.292 51.596,44.107 C51.598,44.095 51.597,44.083 51.6,44.071 C51.624,43.943 51.64,43.811 51.64,43.676 C51.64,43.63 51.629,43.588 51.627,43.543 C51.624,43.495 51.619,43.448 51.612,43.399 C51.587,43.209 51.546,43.024 51.475,42.852 C51.474,42.85 51.474,42.848 51.474,42.846 C51.474,42.846 51.473,42.845 51.473,42.845 C51.399,42.668 51.297,42.508 51.181,42.358 C51.15,42.317 51.118,42.279 51.084,42.241 C50.966,42.109 50.838,41.986 50.692,41.886 C50.672,41.873 50.651,41.863 50.631,41.85 C50.49,41.76 50.337,41.691 50.177,41.635 C50.13,41.619 50.083,41.604 50.034,41.591 C49.853,41.542 49.665,41.507 49.468,41.507 C49.468,41.507 49.468,41.507 49.467,41.507 C49.467,41.507 49.467,41.507 49.467,41.507 C48.658,41.507 47.959,41.958 47.586,42.616 C45.89,42.389 44.394,41.361 43.582,39.821 L42.053,36.916 C43.425,34.593 44.226,31.895 44.226,29.007 C44.226,26.247 43.499,23.656 42.238,21.403 L45.111,16.843 C45.669,15.963 46.57,15.39 47.582,15.246 C47.603,15.285 47.615,15.329 47.639,15.367 C47.653,15.389 47.664,15.412 47.679,15.433 C47.778,15.577 47.898,15.703 48.029,15.819 C48.069,15.855 48.109,15.888 48.152,15.921 C48.299,16.034 48.457,16.135 48.63,16.208 C48.632,16.209 48.634,16.211 48.636,16.212 C48.712,16.244 48.791,16.26 48.869,16.283 C48.925,16.299 48.978,16.322 49.036,16.334 C49.18,16.363 49.325,16.379 49.469,16.379 C49.615,16.379 49.76,16.363 49.903,16.333 C49.912,16.331 49.92,16.327 49.928,16.325 C50.057,16.297 50.184,16.259 50.306,16.207 C50.337,16.194 50.365,16.174 50.396,16.159 C50.492,16.113 50.587,16.067 50.676,16.007 C50.737,15.966 50.789,15.915 50.845,15.868 C50.896,15.825 50.952,15.789 50.999,15.741 C51.001,15.739 51.002,15.737 51.003,15.735 C51.135,15.602 51.243,15.448 51.337,15.285 C51.361,15.243 51.384,15.202 51.406,15.158 C51.487,14.993 51.555,14.821 51.592,14.636 C51.594,14.624 51.593,14.612 51.596,14.6 C51.62,14.472 51.636,14.34 51.636,14.205 C51.636,14.159 51.625,14.117 51.623,14.072 C51.62,14.024 51.615,13.977 51.608,13.928 C51.583,13.738 51.542,13.553 51.471,13.381 C51.47,13.379 51.47,13.377 51.47,13.375 C51.47,13.375 51.469,13.374 51.469,13.374 C51.395,13.197 51.293,13.037 51.177,12.887 C51.146,12.846 51.114,12.808 51.08,12.77 C50.962,12.638 50.834,12.515 50.688,12.415 C50.668,12.402 50.647,12.392 50.627,12.379 C50.486,12.289 50.333,12.22 50.173,12.164 C50.126,12.148 50.079,12.133 50.03,12.12 C49.849,12.071 49.661,12.036 49.464,12.036 C49.464,12.036 49.464,12.036 49.463,12.036 C49.463,12.036 49.463,12.036 49.463,12.036 C48.615,12.036 47.886,12.53 47.53,13.241 C45.848,13.408 44.338,14.322 43.417,15.773 L41.023,19.573 C38.167,15.822 33.67,13.386 28.602,13.386 C23.875,13.386 19.641,15.505 16.774,18.834 L15.877,17.13 C14.739,14.968 12.617,13.547 10.224,13.275 C9.874,12.545 9.134,12.036 8.272,12.036 C7.075,12.036 6.101,13.01 6.101,14.206 C6.101,15.402 7.075,16.376 8.272,16.376 C9.079,16.376 9.777,15.927 10.151,15.271 C11.828,15.511 13.304,16.537 14.107,18.063 L15.45,20.615 C13.896,23.042 12.982,25.918 12.982,29.008 C12.982,31.903 13.788,34.606 15.165,36.933 L12.576,41.042 C12.038,41.906 11.159,42.472 10.169,42.628 Z M28.61,42.627 C24.052,42.627 20.019,40.368 17.546,36.919 L18.281,35.752 C19.453,33.857 21.1,32.352 23.052,31.366 C23.973,33.527 26.117,35.047 28.611,35.047 C31.078,35.047 33.201,33.558 34.138,31.433 C36.448,32.571 38.421,34.415 39.741,36.832 C37.272,40.331 33.207,42.627 28.61,42.627 Z M32.275,30.684 C31.636,32.074 30.238,33.047 28.611,33.047 C26.964,33.047 25.55,32.053 24.922,30.637 C27.408,29.921 29.951,29.965 32.275,30.684 Z M25.084,27.077 C25.771,25.827 27.085,24.967 28.61,24.967 C30.259,24.967 31.676,25.963 32.303,27.383 C29.845,27.991 27.353,27.85 25.084,27.077 Z M42.23,29.007 C42.23,31.102 41.741,33.08 40.892,34.855 C39.317,32.433 37.129,30.598 34.627,29.458 C34.638,29.308 34.65,29.159 34.65,29.007 C34.65,28.913 34.64,28.821 34.636,28.727 L34.659,28.718 C37.283,27.61 39.467,25.758 40.994,23.371 C41.78,25.091 42.23,26.996 42.23,29.007 Z M28.61,15.387 C33.298,15.387 37.439,17.768 39.891,21.384 L39.42,22.132 C38.161,24.17 36.349,25.753 34.201,26.729 C33.299,24.526 31.135,22.968 28.611,22.968 C26.262,22.968 24.228,24.319 23.229,26.282 C20.971,25.086 19.051,23.206 17.796,20.763 C20.286,17.502 24.201,15.387 28.61,15.387 Z M14.991,29.007 C14.991,26.715 15.566,24.557 16.57,22.659 C18.069,25.119 20.186,27.01 22.628,28.222 C22.594,28.479 22.571,28.74 22.571,29.006 C22.571,29.131 22.582,29.253 22.59,29.376 C20.103,30.531 18.029,32.356 16.585,34.692 L16.396,34.992 C15.505,33.184 14.991,31.157 14.991,29.007 Z"></path>
                </g>
                <g transform="translate(85.000000, 24.000000)" id="Shape">
                    <path d="M56.755,0.977 L1.625,0.977 C1.072,0.977 0.625,1.425 0.625,1.977 L0.625,57.107 C0.625,57.66 1.072,58.107 1.625,58.107 L56.755,58.107 C57.308,58.107 57.755,57.66 57.755,57.107 L57.755,1.977 C57.755,1.425 57.308,0.977 56.755,0.977 Z M55.755,56.107 L2.625,56.107 L2.625,2.977 L55.755,2.977 L55.755,56.107 Z"></path>
                    <path d="M10.484,42.628 C10.113,41.963 9.41,41.507 8.596,41.507 C7.399,41.507 6.425,42.481 6.425,43.677 C6.425,44.873 7.399,45.847 8.596,45.847 C9.445,45.847 10.175,45.352 10.531,44.639 C12.193,44.459 13.682,43.546 14.591,42.11 L16.721,38.729 C19.585,42.318 23.987,44.627 28.925,44.627 C33.841,44.627 38.227,42.339 41.092,38.779 L42.131,40.753 C43.281,42.936 45.432,44.361 47.852,44.614 C47.887,44.689 47.914,44.768 47.958,44.838 C47.972,44.86 47.983,44.883 47.998,44.904 C48.097,45.048 48.217,45.174 48.348,45.29 C48.388,45.326 48.428,45.359 48.471,45.392 C48.618,45.505 48.776,45.606 48.949,45.679 C48.951,45.68 48.953,45.682 48.955,45.683 C49.031,45.715 49.11,45.731 49.188,45.754 C49.244,45.77 49.297,45.793 49.355,45.805 C49.499,45.834 49.644,45.85 49.788,45.85 C49.934,45.85 50.079,45.834 50.222,45.804 C50.231,45.802 50.239,45.798 50.247,45.796 C50.376,45.768 50.503,45.73 50.625,45.678 C50.656,45.665 50.684,45.645 50.715,45.63 C50.811,45.584 50.906,45.538 50.995,45.478 C51.056,45.437 51.108,45.386 51.164,45.339 C51.215,45.296 51.271,45.26 51.318,45.212 C51.32,45.21 51.321,45.208 51.322,45.206 C51.454,45.073 51.562,44.919 51.656,44.756 C51.68,44.714 51.703,44.673 51.725,44.629 C51.806,44.464 51.874,44.292 51.911,44.107 C51.913,44.095 51.912,44.083 51.915,44.071 C51.939,43.943 51.955,43.811 51.955,43.676 C51.955,43.63 51.944,43.588 51.942,43.543 C51.939,43.495 51.934,43.448 51.927,43.399 C51.902,43.209 51.861,43.024 51.79,42.852 C51.789,42.85 51.789,42.848 51.789,42.846 C51.789,42.846 51.788,42.845 51.788,42.845 C51.714,42.668 51.612,42.508 51.496,42.358 C51.465,42.317 51.433,42.279 51.399,42.241 C51.281,42.109 51.153,41.986 51.007,41.886 C50.987,41.873 50.966,41.863 50.946,41.85 C50.805,41.76 50.652,41.691 50.492,41.635 C50.445,41.619 50.398,41.604 50.349,41.591 C50.168,41.542 49.98,41.507 49.783,41.507 C49.783,41.507 49.783,41.507 49.782,41.507 C49.782,41.507 49.782,41.507 49.782,41.507 C48.973,41.507 48.274,41.958 47.901,42.616 C46.205,42.389 44.709,41.361 43.897,39.821 L42.368,36.916 C43.74,34.593 44.541,31.895 44.541,29.007 C44.541,26.247 43.814,23.656 42.553,21.403 L45.426,16.843 C45.984,15.963 46.885,15.39 47.897,15.246 C47.918,15.285 47.93,15.329 47.954,15.367 C47.968,15.389 47.979,15.412 47.994,15.433 C48.093,15.577 48.213,15.703 48.344,15.819 C48.384,15.855 48.424,15.888 48.467,15.921 C48.614,16.034 48.772,16.135 48.945,16.208 C48.947,16.209 48.949,16.211 48.951,16.212 C49.027,16.244 49.106,16.26 49.184,16.283 C49.24,16.299 49.293,16.322 49.351,16.334 C49.495,16.363 49.64,16.379 49.784,16.379 C49.93,16.379 50.075,16.363 50.218,16.333 C50.227,16.331 50.235,16.327 50.243,16.325 C50.372,16.297 50.499,16.259 50.621,16.207 C50.652,16.194 50.68,16.174 50.711,16.159 C50.807,16.113 50.902,16.067 50.991,16.007 C51.052,15.966 51.104,15.915 51.16,15.868 C51.211,15.825 51.267,15.789 51.314,15.741 C51.316,15.739 51.317,15.737 51.318,15.735 C51.45,15.602 51.558,15.448 51.652,15.285 C51.676,15.243 51.699,15.202 51.721,15.158 C51.802,14.993 51.87,14.821 51.907,14.636 C51.909,14.624 51.908,14.612 51.911,14.6 C51.935,14.472 51.951,14.34 51.951,14.205 C51.951,14.159 51.94,14.117 51.938,14.072 C51.935,14.024 51.93,13.977 51.923,13.928 C51.898,13.738 51.857,13.553 51.786,13.381 C51.785,13.379 51.785,13.377 51.785,13.375 C51.785,13.375 51.784,13.374 51.784,13.374 C51.71,13.197 51.608,13.037 51.492,12.887 C51.461,12.846 51.429,12.808 51.395,12.77 C51.277,12.638 51.149,12.515 51.003,12.415 C50.983,12.402 50.962,12.392 50.942,12.379 C50.801,12.289 50.648,12.22 50.488,12.164 C50.441,12.148 50.394,12.133 50.345,12.12 C50.164,12.071 49.976,12.036 49.779,12.036 C49.779,12.036 49.779,12.036 49.778,12.036 C49.778,12.036 49.778,12.036 49.778,12.036 C48.93,12.036 48.201,12.53 47.845,13.241 C46.163,13.408 44.653,14.322 43.732,15.773 L41.338,19.573 C38.482,15.822 33.985,13.386 28.917,13.386 C24.19,13.386 19.956,15.505 17.089,18.834 L16.192,17.13 C15.054,14.968 12.932,13.547 10.539,13.275 C10.189,12.545 9.449,12.036 8.587,12.036 C7.39,12.036 6.416,13.01 6.416,14.206 C6.416,15.402 7.39,16.376 8.587,16.376 C9.394,16.376 10.092,15.927 10.466,15.271 C12.143,15.511 13.619,16.537 14.422,18.063 L15.765,20.615 C14.211,23.042 13.297,25.918 13.297,29.008 C13.297,31.903 14.103,34.606 15.48,36.933 L12.891,41.042 C12.353,41.906 11.474,42.472 10.484,42.628 Z M28.925,42.627 C24.367,42.627 20.334,40.368 17.861,36.919 L18.596,35.752 C19.768,33.857 21.415,32.352 23.367,31.366 C24.288,33.527 26.432,35.047 28.926,35.047 C31.393,35.047 33.516,33.558 34.453,31.433 C36.763,32.571 38.736,34.415 40.056,36.832 C37.588,40.331 33.523,42.627 28.925,42.627 Z M32.59,30.684 C31.951,32.074 30.553,33.047 28.926,33.047 C27.279,33.047 25.865,32.053 25.237,30.637 C27.723,29.921 30.266,29.965 32.59,30.684 Z M25.399,27.077 C26.086,25.827 27.4,24.967 28.925,24.967 C30.574,24.967 31.991,25.963 32.618,27.383 C30.161,27.991 27.669,27.85 25.399,27.077 Z M42.545,29.007 C42.545,31.102 42.056,33.08 41.207,34.855 C39.632,32.433 37.444,30.598 34.942,29.458 C34.953,29.308 34.965,29.159 34.965,29.007 C34.965,28.913 34.955,28.821 34.951,28.727 L34.974,28.718 C37.598,27.61 39.782,25.758 41.309,23.371 C42.096,25.091 42.545,26.996 42.545,29.007 Z M28.925,15.387 C33.613,15.387 37.754,17.768 40.206,21.384 L39.735,22.132 C38.476,24.17 36.664,25.753 34.516,26.729 C33.614,24.526 31.45,22.968 28.926,22.968 C26.577,22.968 24.543,24.319 23.544,26.282 C21.286,25.086 19.366,23.206 18.111,20.763 C20.602,17.502 24.516,15.387 28.925,15.387 Z M15.306,29.007 C15.306,26.715 15.881,24.557 16.885,22.659 C18.384,25.119 20.501,27.01 22.943,28.222 C22.909,28.479 22.886,28.74 22.886,29.006 C22.886,29.131 22.897,29.253 22.905,29.376 C20.418,30.531 18.344,32.356 16.9,34.692 L16.711,34.992 C15.82,33.184 15.306,31.157 15.306,29.007 Z"></path>
                </g>
                <path d="M166.531,157.172 L12.93,157.172 C12.377,157.172 11.93,156.725 11.93,156.172 C11.93,155.619 12.377,155.172 12.93,155.172 L166.531,155.172 C167.084,155.172 167.531,155.619 167.531,156.172 C167.531,156.725 167.084,157.172 166.531,157.172 Z" id="Shape"></path>
                <path d="M159.76,113.702 L148.1,113.702 C147.547,113.702 147.1,113.254 147.1,112.702 L147.1,101.042 C147.1,100.49 147.547,100.042 148.1,100.042 L159.76,100.042 C160.313,100.042 160.76,100.49 160.76,101.042 L160.76,112.702 C160.76,113.254 160.313,113.702 159.76,113.702 Z M149.1,111.702 L158.76,111.702 L158.76,102.042 L149.1,102.042 L149.1,111.702 Z" id="Shape"></path>
                <path d="M159.76,130.452 L148.1,130.452 C147.547,130.452 147.1,130.004 147.1,129.452 L147.1,117.792 C147.1,117.24 147.547,116.792 148.1,116.792 L159.76,116.792 C160.313,116.792 160.76,117.24 160.76,117.792 L160.76,129.452 C160.76,130.004 160.313,130.452 159.76,130.452 Z M149.1,128.452 L158.76,128.452 L158.76,118.792 L149.1,118.792 L149.1,128.452 Z" id="Shape"></path>
                <g transform="translate(19.000000, 100.000000)" id="Shape">
                    <path d="M56.44,0.042 L1.31,0.042 C0.757,0.042 0.31,0.49 0.31,1.042 L0.31,56.172 C0.31,56.725 0.757,57.172 1.31,57.172 L56.44,57.172 C56.993,57.172 57.44,56.725 57.44,56.172 L57.44,1.042 C57.44,0.49 56.993,0.042 56.44,0.042 Z M55.44,55.172 L2.31,55.172 L2.31,2.042 L55.44,2.042 L55.44,55.172 Z"></path>
                    <path d="M10.169,41.694 C9.798,41.029 9.095,40.573 8.281,40.573 C7.084,40.573 6.11,41.547 6.11,42.743 C6.11,43.939 7.084,44.913 8.281,44.913 C9.13,44.913 9.86,44.418 10.216,43.705 C11.878,43.525 13.367,42.612 14.276,41.176 L16.406,37.795 C19.27,41.384 23.672,43.693 28.61,43.693 C33.526,43.693 37.912,41.405 40.777,37.845 L41.816,39.819 C42.966,42.002 45.117,43.427 47.537,43.68 C47.572,43.755 47.599,43.834 47.643,43.904 C47.657,43.926 47.668,43.949 47.683,43.97 C47.782,44.114 47.902,44.24 48.033,44.356 C48.073,44.392 48.113,44.425 48.156,44.458 C48.303,44.571 48.461,44.672 48.634,44.745 C48.636,44.746 48.638,44.748 48.64,44.749 C48.716,44.781 48.795,44.797 48.873,44.82 C48.929,44.836 48.982,44.859 49.04,44.871 C49.184,44.9 49.329,44.916 49.473,44.916 C49.619,44.916 49.764,44.9 49.907,44.87 C49.916,44.868 49.924,44.864 49.932,44.862 C50.061,44.834 50.188,44.796 50.31,44.744 C50.341,44.731 50.369,44.711 50.4,44.696 C50.496,44.65 50.591,44.604 50.68,44.544 C50.741,44.503 50.793,44.452 50.849,44.405 C50.9,44.362 50.956,44.326 51.003,44.278 C51.005,44.276 51.006,44.274 51.007,44.272 C51.139,44.139 51.247,43.985 51.341,43.822 C51.365,43.78 51.388,43.739 51.41,43.695 C51.491,43.53 51.559,43.358 51.596,43.173 C51.598,43.161 51.597,43.149 51.6,43.137 C51.624,43.009 51.64,42.877 51.64,42.742 C51.64,42.696 51.629,42.654 51.627,42.609 C51.624,42.561 51.619,42.514 51.612,42.465 C51.587,42.275 51.546,42.09 51.475,41.918 C51.474,41.916 51.474,41.914 51.474,41.912 C51.474,41.912 51.473,41.911 51.473,41.911 C51.399,41.734 51.297,41.574 51.181,41.424 C51.15,41.383 51.118,41.345 51.084,41.307 C50.966,41.175 50.838,41.052 50.692,40.952 C50.672,40.939 50.651,40.929 50.631,40.916 C50.49,40.826 50.337,40.757 50.177,40.701 C50.13,40.685 50.083,40.67 50.034,40.657 C49.853,40.608 49.665,40.573 49.468,40.573 C49.468,40.573 49.468,40.573 49.467,40.573 C49.467,40.573 49.467,40.573 49.467,40.573 C48.658,40.573 47.959,41.024 47.586,41.682 C45.89,41.455 44.394,40.427 43.582,38.887 L42.053,35.982 C43.425,33.659 44.226,30.961 44.226,28.073 C44.226,25.313 43.499,22.722 42.238,20.469 L45.111,15.909 C45.669,15.029 46.57,14.456 47.582,14.312 C47.603,14.351 47.615,14.395 47.639,14.433 C47.653,14.455 47.664,14.478 47.679,14.499 C47.778,14.643 47.898,14.769 48.029,14.885 C48.069,14.921 48.109,14.954 48.152,14.987 C48.299,15.1 48.457,15.201 48.63,15.274 C48.632,15.275 48.634,15.277 48.636,15.278 C48.712,15.31 48.791,15.326 48.869,15.349 C48.925,15.365 48.978,15.388 49.036,15.4 C49.18,15.429 49.325,15.445 49.469,15.445 C49.615,15.445 49.76,15.429 49.903,15.399 C49.912,15.397 49.92,15.393 49.928,15.391 C50.057,15.363 50.184,15.325 50.306,15.273 C50.337,15.26 50.365,15.24 50.396,15.225 C50.492,15.179 50.587,15.133 50.676,15.073 C50.737,15.032 50.789,14.981 50.845,14.934 C50.896,14.891 50.952,14.855 50.999,14.807 C51.001,14.805 51.002,14.803 51.003,14.801 C51.135,14.668 51.243,14.514 51.337,14.351 C51.361,14.309 51.384,14.268 51.406,14.224 C51.487,14.059 51.555,13.887 51.592,13.702 C51.594,13.69 51.593,13.678 51.596,13.666 C51.62,13.538 51.636,13.406 51.636,13.271 C51.636,13.225 51.625,13.183 51.623,13.138 C51.62,13.09 51.615,13.043 51.608,12.994 C51.583,12.804 51.542,12.619 51.471,12.447 C51.47,12.445 51.47,12.443 51.47,12.441 C51.47,12.441 51.469,12.44 51.469,12.44 C51.395,12.263 51.293,12.103 51.177,11.953 C51.146,11.912 51.114,11.874 51.08,11.836 C50.962,11.704 50.834,11.581 50.688,11.481 C50.668,11.468 50.647,11.458 50.627,11.445 C50.486,11.355 50.333,11.286 50.173,11.23 C50.126,11.214 50.079,11.199 50.03,11.186 C49.849,11.137 49.661,11.102 49.464,11.102 C49.464,11.102 49.464,11.102 49.463,11.102 C49.463,11.102 49.463,11.102 49.463,11.102 C48.615,11.102 47.886,11.596 47.53,12.307 C45.848,12.474 44.338,13.388 43.417,14.839 L41.023,18.639 C38.167,14.888 33.67,12.452 28.602,12.452 C23.875,12.452 19.641,14.571 16.774,17.9 L15.877,16.196 C14.739,14.034 12.617,12.613 10.224,12.341 C9.874,11.611 9.134,11.102 8.272,11.102 C7.075,11.102 6.101,12.076 6.101,13.272 C6.101,14.468 7.075,15.442 8.272,15.442 C9.079,15.442 9.777,14.993 10.151,14.337 C11.828,14.577 13.304,15.603 14.107,17.129 L15.45,19.681 C13.896,22.108 12.982,24.984 12.982,28.074 C12.982,30.969 13.788,33.672 15.165,35.999 L12.576,40.108 C12.038,40.972 11.159,41.537 10.169,41.694 Z M28.61,41.692 C24.052,41.692 20.019,39.433 17.546,35.984 L18.281,34.817 C19.453,32.922 21.1,31.417 23.052,30.431 C23.973,32.592 26.117,34.112 28.611,34.112 C31.078,34.112 33.201,32.623 34.138,30.498 C36.448,31.636 38.421,33.48 39.741,35.897 C37.272,39.396 33.207,41.692 28.61,41.692 Z M32.275,29.749 C31.636,31.139 30.238,32.112 28.611,32.112 C26.964,32.112 25.55,31.118 24.922,29.702 C27.408,28.986 29.951,29.03 32.275,29.749 Z M25.084,26.142 C25.771,24.892 27.085,24.032 28.61,24.032 C30.259,24.032 31.676,25.028 32.303,26.448 C29.845,27.056 27.353,26.915 25.084,26.142 Z M42.23,28.072 C42.23,30.167 41.741,32.145 40.892,33.92 C39.317,31.498 37.129,29.663 34.627,28.523 C34.638,28.373 34.65,28.224 34.65,28.072 C34.65,27.978 34.64,27.886 34.636,27.792 L34.659,27.783 C37.283,26.675 39.467,24.823 40.994,22.436 C41.78,24.156 42.23,26.061 42.23,28.072 Z M28.61,14.452 C33.298,14.452 37.439,16.833 39.891,20.449 L39.42,21.197 C38.161,23.235 36.349,24.818 34.201,25.794 C33.299,23.591 31.135,22.033 28.611,22.033 C26.262,22.033 24.228,23.384 23.229,25.347 C20.971,24.151 19.051,22.271 17.796,19.828 C20.286,16.567 24.201,14.452 28.61,14.452 Z M14.991,28.072 C14.991,25.78 15.566,23.622 16.57,21.724 C18.069,24.184 20.186,26.075 22.628,27.287 C22.594,27.544 22.571,27.805 22.571,28.071 C22.571,28.196 22.582,28.318 22.59,28.441 C20.103,29.596 18.029,31.421 16.585,33.757 L16.396,34.057 C15.505,32.249 14.991,30.222 14.991,28.072 Z"></path>
                </g>
                <g transform="translate(85.000000, 100.000000)" id="Shape">
                    <path d="M56.755,0.042 L1.625,0.042 C1.072,0.042 0.625,0.49 0.625,1.042 L0.625,56.172 C0.625,56.725 1.072,57.172 1.625,57.172 L56.755,57.172 C57.308,57.172 57.755,56.725 57.755,56.172 L57.755,1.042 C57.755,0.49 57.308,0.042 56.755,0.042 Z M55.755,55.172 L2.625,55.172 L2.625,2.042 L55.755,2.042 L55.755,55.172 Z"></path>
                    <path d="M10.484,41.694 C10.113,41.029 9.41,40.573 8.596,40.573 C7.399,40.573 6.425,41.547 6.425,42.743 C6.425,43.939 7.399,44.913 8.596,44.913 C9.445,44.913 10.175,44.418 10.531,43.705 C12.193,43.525 13.682,42.612 14.591,41.176 L16.721,37.795 C19.585,41.384 23.987,43.693 28.925,43.693 C33.841,43.693 38.227,41.405 41.092,37.845 L42.131,39.819 C43.281,42.002 45.432,43.427 47.852,43.68 C47.887,43.755 47.914,43.834 47.958,43.904 C47.972,43.926 47.983,43.949 47.998,43.97 C48.097,44.114 48.217,44.24 48.348,44.356 C48.388,44.392 48.428,44.425 48.471,44.458 C48.618,44.571 48.776,44.672 48.949,44.745 C48.951,44.746 48.953,44.748 48.955,44.749 C49.031,44.781 49.11,44.797 49.188,44.82 C49.244,44.836 49.297,44.859 49.355,44.871 C49.499,44.9 49.644,44.916 49.788,44.916 C49.934,44.916 50.079,44.9 50.222,44.87 C50.231,44.868 50.239,44.864 50.247,44.862 C50.376,44.834 50.503,44.796 50.625,44.744 C50.656,44.731 50.684,44.711 50.715,44.696 C50.811,44.65 50.906,44.604 50.995,44.544 C51.056,44.503 51.108,44.452 51.164,44.405 C51.215,44.362 51.271,44.326 51.318,44.278 C51.32,44.276 51.321,44.274 51.322,44.272 C51.454,44.139 51.562,43.985 51.656,43.822 C51.68,43.78 51.703,43.739 51.725,43.695 C51.806,43.53 51.874,43.358 51.911,43.173 C51.913,43.161 51.912,43.149 51.915,43.137 C51.939,43.009 51.955,42.877 51.955,42.742 C51.955,42.696 51.944,42.654 51.942,42.609 C51.939,42.561 51.934,42.514 51.927,42.465 C51.902,42.275 51.861,42.09 51.79,41.918 C51.789,41.916 51.789,41.914 51.789,41.912 C51.789,41.912 51.788,41.911 51.788,41.911 C51.714,41.734 51.612,41.574 51.496,41.424 C51.465,41.383 51.433,41.345 51.399,41.307 C51.281,41.175 51.153,41.052 51.007,40.952 C50.987,40.939 50.966,40.929 50.946,40.916 C50.805,40.826 50.652,40.757 50.492,40.701 C50.445,40.685 50.398,40.67 50.349,40.657 C50.168,40.608 49.98,40.573 49.783,40.573 C49.783,40.573 49.783,40.573 49.782,40.573 C49.782,40.573 49.782,40.573 49.782,40.573 C48.973,40.573 48.274,41.024 47.901,41.682 C46.205,41.455 44.709,40.427 43.897,38.887 L42.368,35.982 C43.74,33.659 44.541,30.961 44.541,28.073 C44.541,25.313 43.814,22.722 42.553,20.469 L45.426,15.909 C45.984,15.029 46.885,14.456 47.897,14.312 C47.918,14.351 47.93,14.395 47.954,14.433 C47.968,14.455 47.979,14.478 47.994,14.499 C48.093,14.643 48.213,14.769 48.344,14.885 C48.384,14.921 48.424,14.954 48.467,14.987 C48.614,15.1 48.772,15.201 48.945,15.274 C48.947,15.275 48.949,15.277 48.951,15.278 C49.027,15.31 49.106,15.326 49.184,15.349 C49.24,15.365 49.293,15.388 49.351,15.4 C49.495,15.429 49.64,15.445 49.784,15.445 C49.93,15.445 50.075,15.429 50.218,15.399 C50.227,15.397 50.235,15.393 50.243,15.391 C50.372,15.363 50.499,15.325 50.621,15.273 C50.652,15.26 50.68,15.24 50.711,15.225 C50.807,15.179 50.902,15.133 50.991,15.073 C51.052,15.032 51.104,14.981 51.16,14.934 C51.211,14.891 51.267,14.855 51.314,14.807 C51.316,14.805 51.317,14.803 51.318,14.801 C51.45,14.668 51.558,14.514 51.652,14.351 C51.676,14.309 51.699,14.268 51.721,14.224 C51.802,14.059 51.87,13.887 51.907,13.702 C51.909,13.69 51.908,13.678 51.911,13.666 C51.935,13.538 51.951,13.406 51.951,13.271 C51.951,13.225 51.94,13.183 51.938,13.138 C51.935,13.09 51.93,13.043 51.923,12.994 C51.898,12.804 51.857,12.619 51.786,12.447 C51.785,12.445 51.785,12.443 51.785,12.441 C51.785,12.441 51.784,12.44 51.784,12.44 C51.71,12.263 51.608,12.103 51.492,11.953 C51.461,11.912 51.429,11.874 51.395,11.836 C51.277,11.704 51.149,11.581 51.003,11.481 C50.983,11.468 50.962,11.458 50.942,11.445 C50.801,11.355 50.648,11.286 50.488,11.23 C50.441,11.214 50.394,11.199 50.345,11.186 C50.164,11.137 49.976,11.102 49.779,11.102 C49.779,11.102 49.779,11.102 49.778,11.102 C49.778,11.102 49.778,11.102 49.778,11.102 C48.93,11.102 48.201,11.596 47.845,12.307 C46.163,12.474 44.653,13.388 43.732,14.839 L41.338,18.639 C38.482,14.888 33.985,12.452 28.917,12.452 C24.19,12.452 19.956,14.571 17.089,17.9 L16.192,16.196 C15.054,14.034 12.932,12.613 10.539,12.341 C10.189,11.611 9.449,11.102 8.587,11.102 C7.39,11.102 6.416,12.076 6.416,13.272 C6.416,14.468 7.39,15.442 8.587,15.442 C9.394,15.442 10.092,14.993 10.466,14.337 C12.143,14.577 13.619,15.603 14.422,17.129 L15.765,19.681 C14.211,22.108 13.297,24.984 13.297,28.074 C13.297,30.969 14.103,33.672 15.48,35.999 L12.891,40.108 C12.353,40.972 11.474,41.537 10.484,41.694 Z M28.925,41.692 C24.367,41.692 20.334,39.433 17.861,35.984 L18.596,34.817 C19.768,32.922 21.415,31.417 23.367,30.431 C24.288,32.592 26.432,34.112 28.926,34.112 C31.393,34.112 33.516,32.623 34.453,30.498 C36.763,31.636 38.736,33.48 40.056,35.897 C37.588,39.396 33.523,41.692 28.925,41.692 Z M32.59,29.749 C31.951,31.139 30.553,32.112 28.926,32.112 C27.279,32.112 25.865,31.118 25.237,29.702 C27.723,28.986 30.266,29.03 32.59,29.749 Z M25.399,26.142 C26.086,24.892 27.4,24.032 28.925,24.032 C30.574,24.032 31.991,25.028 32.618,26.448 C30.161,27.056 27.669,26.915 25.399,26.142 Z M42.545,28.072 C42.545,30.167 42.056,32.145 41.207,33.92 C39.632,31.498 37.444,29.663 34.942,28.523 C34.953,28.373 34.965,28.224 34.965,28.072 C34.965,27.978 34.955,27.886 34.951,27.792 L34.974,27.783 C37.598,26.675 39.782,24.823 41.309,22.436 C42.096,24.156 42.545,26.061 42.545,28.072 Z M28.925,14.452 C33.613,14.452 37.754,16.833 40.206,20.449 L39.735,21.197 C38.476,23.235 36.664,24.818 34.516,25.794 C33.614,23.591 31.45,22.033 28.926,22.033 C26.577,22.033 24.543,23.384 23.544,25.347 C21.286,24.151 19.366,22.271 18.111,19.828 C20.602,16.567 24.516,14.452 28.925,14.452 Z M15.306,28.072 C15.306,25.78 15.881,23.622 16.885,21.724 C18.384,24.184 20.501,26.075 22.943,27.287 C22.909,27.544 22.886,27.805 22.886,28.071 C22.886,28.196 22.897,28.318 22.905,28.441 C20.418,29.596 18.344,31.421 16.9,33.757 L16.711,34.057 C15.82,32.249 15.306,30.222 15.306,28.072 Z"></path>
                </g>
                <path d="M166.531,232.37 L12.93,232.37 C12.377,232.37 11.93,231.923 11.93,231.37 C11.93,230.817 12.377,230.37 12.93,230.37 L166.531,230.37 C167.084,230.37 167.531,230.817 167.531,231.37 C167.531,231.923 167.084,232.37 166.531,232.37 Z" id="Shape"></path>
                <path d="M159.76,188.9 L148.1,188.9 C147.547,188.9 147.1,188.452 147.1,187.9 L147.1,176.24 C147.1,175.688 147.547,175.24 148.1,175.24 L159.76,175.24 C160.313,175.24 160.76,175.688 160.76,176.24 L160.76,187.9 C160.76,188.452 160.313,188.9 159.76,188.9 Z M149.1,186.9 L158.76,186.9 L158.76,177.24 L149.1,177.24 L149.1,186.9 Z" id="Shape"></path>
                <path d="M159.76,205.65 L148.1,205.65 C147.547,205.65 147.1,205.202 147.1,204.65 L147.1,192.99 C147.1,192.438 147.547,191.99 148.1,191.99 L159.76,191.99 C160.313,191.99 160.76,192.438 160.76,192.99 L160.76,204.65 C160.76,205.202 160.313,205.65 159.76,205.65 Z M149.1,203.65 L158.76,203.65 L158.76,193.99 L149.1,193.99 L149.1,203.65 Z" id="Shape"></path>
                <g transform="translate(19.000000, 175.000000)" id="Shape">
                    <path d="M56.44,0.24 L1.31,0.24 C0.757,0.24 0.31,0.688 0.31,1.24 L0.31,56.37 C0.31,56.923 0.757,57.37 1.31,57.37 L56.44,57.37 C56.993,57.37 57.44,56.923 57.44,56.37 L57.44,1.24 C57.44,0.688 56.993,0.24 56.44,0.24 Z M55.44,55.37 L2.31,55.37 L2.31,2.24 L55.44,2.24 L55.44,55.37 Z"></path>
                    <path d="M10.169,41.891 C9.798,41.226 9.095,40.77 8.281,40.77 C7.084,40.77 6.11,41.744 6.11,42.94 C6.11,44.136 7.084,45.11 8.281,45.11 C9.13,45.11 9.86,44.615 10.216,43.902 C11.878,43.722 13.367,42.809 14.276,41.373 L16.406,37.992 C19.27,41.581 23.672,43.89 28.61,43.89 C33.526,43.89 37.912,41.602 40.777,38.042 L41.816,40.016 C42.966,42.199 45.117,43.624 47.537,43.877 C47.572,43.952 47.599,44.031 47.643,44.101 C47.657,44.123 47.668,44.146 47.683,44.167 C47.782,44.311 47.902,44.437 48.033,44.553 C48.073,44.589 48.113,44.622 48.156,44.655 C48.303,44.768 48.461,44.869 48.634,44.942 C48.636,44.943 48.638,44.945 48.64,44.946 C48.716,44.978 48.795,44.994 48.873,45.017 C48.929,45.033 48.982,45.056 49.04,45.068 C49.184,45.097 49.329,45.113 49.473,45.113 C49.619,45.113 49.764,45.097 49.907,45.067 C49.916,45.065 49.924,45.061 49.932,45.059 C50.061,45.031 50.188,44.993 50.31,44.941 C50.341,44.928 50.369,44.908 50.4,44.893 C50.496,44.847 50.591,44.801 50.68,44.741 C50.741,44.7 50.793,44.649 50.849,44.602 C50.9,44.559 50.956,44.523 51.003,44.475 C51.005,44.473 51.006,44.471 51.007,44.469 C51.139,44.336 51.247,44.182 51.341,44.019 C51.365,43.977 51.388,43.936 51.41,43.892 C51.491,43.727 51.559,43.555 51.596,43.37 C51.598,43.358 51.597,43.346 51.6,43.334 C51.624,43.206 51.64,43.074 51.64,42.939 C51.64,42.893 51.629,42.851 51.627,42.806 C51.624,42.758 51.619,42.711 51.612,42.662 C51.587,42.472 51.546,42.287 51.475,42.115 C51.474,42.113 51.474,42.111 51.474,42.109 C51.474,42.109 51.473,42.108 51.473,42.108 C51.399,41.931 51.297,41.771 51.181,41.621 C51.15,41.58 51.118,41.542 51.084,41.504 C50.966,41.372 50.838,41.249 50.692,41.149 C50.672,41.136 50.651,41.126 50.631,41.113 C50.49,41.023 50.337,40.954 50.177,40.898 C50.13,40.882 50.083,40.867 50.034,40.854 C49.853,40.805 49.665,40.77 49.468,40.77 C49.468,40.77 49.468,40.77 49.467,40.77 C49.467,40.77 49.467,40.77 49.467,40.77 C48.658,40.77 47.959,41.221 47.586,41.879 C45.89,41.652 44.394,40.624 43.582,39.084 L42.053,36.179 C43.425,33.856 44.226,31.158 44.226,28.27 C44.226,25.51 43.499,22.919 42.238,20.666 L45.111,16.106 C45.669,15.226 46.57,14.653 47.582,14.509 C47.603,14.548 47.615,14.592 47.639,14.63 C47.653,14.652 47.664,14.675 47.679,14.696 C47.778,14.84 47.898,14.966 48.029,15.082 C48.069,15.118 48.109,15.151 48.152,15.184 C48.299,15.297 48.457,15.398 48.63,15.471 C48.632,15.472 48.634,15.474 48.636,15.475 C48.712,15.507 48.791,15.523 48.869,15.546 C48.925,15.562 48.978,15.585 49.036,15.597 C49.18,15.626 49.325,15.642 49.469,15.642 C49.615,15.642 49.76,15.626 49.903,15.596 C49.912,15.594 49.92,15.59 49.928,15.588 C50.057,15.56 50.184,15.522 50.306,15.47 C50.337,15.457 50.365,15.437 50.396,15.422 C50.492,15.376 50.587,15.33 50.676,15.27 C50.737,15.229 50.789,15.178 50.845,15.131 C50.896,15.088 50.952,15.052 50.999,15.004 C51.001,15.002 51.002,15 51.003,14.998 C51.135,14.865 51.243,14.711 51.337,14.548 C51.361,14.506 51.384,14.465 51.406,14.421 C51.487,14.256 51.555,14.084 51.592,13.899 C51.594,13.887 51.593,13.875 51.596,13.863 C51.62,13.735 51.636,13.603 51.636,13.468 C51.636,13.422 51.625,13.38 51.623,13.335 C51.62,13.287 51.615,13.24 51.608,13.191 C51.583,13.001 51.542,12.816 51.471,12.644 C51.47,12.642 51.47,12.64 51.47,12.638 C51.47,12.638 51.469,12.637 51.469,12.637 C51.395,12.46 51.293,12.3 51.177,12.15 C51.146,12.109 51.114,12.071 51.08,12.033 C50.962,11.901 50.834,11.778 50.688,11.678 C50.668,11.665 50.647,11.655 50.627,11.642 C50.486,11.552 50.333,11.483 50.173,11.427 C50.126,11.411 50.079,11.396 50.03,11.383 C49.849,11.334 49.661,11.299 49.464,11.299 C49.464,11.299 49.464,11.299 49.463,11.299 C49.463,11.299 49.463,11.299 49.463,11.299 C48.615,11.299 47.886,11.793 47.53,12.504 C45.848,12.671 44.338,13.585 43.417,15.036 L41.023,18.836 C38.167,15.085 33.67,12.649 28.602,12.649 C23.875,12.649 19.641,14.768 16.774,18.097 L15.877,16.393 C14.739,14.231 12.617,12.81 10.224,12.538 C9.874,11.808 9.134,11.299 8.272,11.299 C7.075,11.299 6.101,12.273 6.101,13.469 C6.101,14.665 7.075,15.639 8.272,15.639 C9.079,15.639 9.777,15.19 10.151,14.534 C11.828,14.774 13.304,15.8 14.107,17.326 L15.45,19.878 C13.896,22.305 12.982,25.181 12.982,28.271 C12.982,31.166 13.788,33.869 15.165,36.196 L12.576,40.305 C12.038,41.169 11.159,41.735 10.169,41.891 Z M28.61,41.89 C24.052,41.89 20.019,39.631 17.546,36.182 L18.281,35.015 C19.453,33.12 21.1,31.615 23.052,30.629 C23.973,32.79 26.117,34.31 28.611,34.31 C31.078,34.31 33.201,32.821 34.138,30.696 C36.448,31.834 38.421,33.678 39.741,36.095 C37.272,39.594 33.207,41.89 28.61,41.89 Z M32.275,29.947 C31.636,31.337 30.238,32.31 28.611,32.31 C26.964,32.31 25.55,31.316 24.922,29.9 C27.408,29.184 29.951,29.228 32.275,29.947 Z M25.084,26.34 C25.771,25.09 27.085,24.23 28.61,24.23 C30.259,24.23 31.676,25.226 32.303,26.646 C29.845,27.254 27.353,27.113 25.084,26.34 Z M42.23,28.27 C42.23,30.365 41.741,32.343 40.892,34.118 C39.317,31.696 37.129,29.861 34.627,28.721 C34.638,28.571 34.65,28.422 34.65,28.27 C34.65,28.176 34.64,28.084 34.636,27.99 L34.659,27.981 C37.283,26.873 39.467,25.021 40.994,22.634 C41.78,24.354 42.23,26.259 42.23,28.27 Z M28.61,14.65 C33.298,14.65 37.439,17.031 39.891,20.647 L39.42,21.395 C38.161,23.433 36.349,25.016 34.201,25.992 C33.299,23.789 31.135,22.231 28.611,22.231 C26.262,22.231 24.228,23.582 23.229,25.545 C20.971,24.349 19.051,22.469 17.796,20.026 C20.286,16.765 24.201,14.65 28.61,14.65 Z M14.991,28.27 C14.991,25.978 15.566,23.82 16.57,21.922 C18.069,24.382 20.186,26.273 22.628,27.485 C22.594,27.742 22.571,28.003 22.571,28.269 C22.571,28.394 22.582,28.516 22.59,28.639 C20.103,29.794 18.029,31.619 16.585,33.955 L16.396,34.255 C15.505,32.447 14.991,30.42 14.991,28.27 Z"></path>
                </g>
                <g transform="translate(85.000000, 175.000000)" id="Shape">
                    <path d="M56.755,0.24 L1.625,0.24 C1.072,0.24 0.625,0.688 0.625,1.24 L0.625,56.37 C0.625,56.923 1.072,57.37 1.625,57.37 L56.755,57.37 C57.308,57.37 57.755,56.923 57.755,56.37 L57.755,1.24 C57.755,0.688 57.308,0.24 56.755,0.24 Z M55.755,55.37 L2.625,55.37 L2.625,2.24 L55.755,2.24 L55.755,55.37 Z"></path>
                    <path d="M10.484,41.891 C10.113,41.226 9.41,40.77 8.596,40.77 C7.399,40.77 6.425,41.744 6.425,42.94 C6.425,44.136 7.399,45.11 8.596,45.11 C9.445,45.11 10.175,44.615 10.531,43.902 C12.193,43.722 13.682,42.809 14.591,41.373 L16.721,37.992 C19.585,41.581 23.987,43.89 28.925,43.89 C33.841,43.89 38.227,41.602 41.092,38.042 L42.131,40.016 C43.281,42.199 45.432,43.624 47.852,43.877 C47.887,43.952 47.914,44.031 47.958,44.101 C47.972,44.123 47.983,44.146 47.998,44.167 C48.097,44.311 48.217,44.437 48.348,44.553 C48.388,44.589 48.428,44.622 48.471,44.655 C48.618,44.768 48.776,44.869 48.949,44.942 C48.951,44.943 48.953,44.945 48.955,44.946 C49.031,44.978 49.11,44.994 49.188,45.017 C49.244,45.033 49.297,45.056 49.355,45.068 C49.499,45.097 49.644,45.113 49.788,45.113 C49.934,45.113 50.079,45.097 50.222,45.067 C50.231,45.065 50.239,45.061 50.247,45.059 C50.376,45.031 50.503,44.993 50.625,44.941 C50.656,44.928 50.684,44.908 50.715,44.893 C50.811,44.847 50.906,44.801 50.995,44.741 C51.056,44.7 51.108,44.649 51.164,44.602 C51.215,44.559 51.271,44.523 51.318,44.475 C51.32,44.473 51.321,44.471 51.322,44.469 C51.454,44.336 51.562,44.182 51.656,44.019 C51.68,43.977 51.703,43.936 51.725,43.892 C51.806,43.727 51.874,43.555 51.911,43.37 C51.913,43.358 51.912,43.346 51.915,43.334 C51.939,43.206 51.955,43.074 51.955,42.939 C51.955,42.893 51.944,42.851 51.942,42.806 C51.939,42.758 51.934,42.711 51.927,42.662 C51.902,42.472 51.861,42.287 51.79,42.115 C51.789,42.113 51.789,42.111 51.789,42.109 C51.789,42.109 51.788,42.108 51.788,42.108 C51.714,41.931 51.612,41.771 51.496,41.621 C51.465,41.58 51.433,41.542 51.399,41.504 C51.281,41.372 51.153,41.249 51.007,41.149 C50.987,41.136 50.966,41.126 50.946,41.113 C50.805,41.023 50.652,40.954 50.492,40.898 C50.445,40.882 50.398,40.867 50.349,40.854 C50.168,40.805 49.98,40.77 49.783,40.77 C49.783,40.77 49.783,40.77 49.782,40.77 C49.782,40.77 49.782,40.77 49.782,40.77 C48.973,40.77 48.274,41.221 47.901,41.879 C46.205,41.652 44.709,40.624 43.897,39.084 L42.368,36.179 C43.74,33.856 44.541,31.158 44.541,28.27 C44.541,25.51 43.814,22.919 42.553,20.666 L45.426,16.106 C45.984,15.226 46.885,14.653 47.897,14.509 C47.918,14.548 47.93,14.592 47.954,14.63 C47.968,14.652 47.979,14.675 47.994,14.696 C48.093,14.84 48.213,14.966 48.344,15.082 C48.384,15.118 48.424,15.151 48.467,15.184 C48.614,15.297 48.772,15.398 48.945,15.471 C48.947,15.472 48.949,15.474 48.951,15.475 C49.027,15.507 49.106,15.523 49.184,15.546 C49.24,15.562 49.293,15.585 49.351,15.597 C49.495,15.626 49.64,15.642 49.784,15.642 C49.93,15.642 50.075,15.626 50.218,15.596 C50.227,15.594 50.235,15.59 50.243,15.588 C50.372,15.56 50.499,15.522 50.621,15.47 C50.652,15.457 50.68,15.437 50.711,15.422 C50.807,15.376 50.902,15.33 50.991,15.27 C51.052,15.229 51.104,15.178 51.16,15.131 C51.211,15.088 51.267,15.052 51.314,15.004 C51.316,15.002 51.317,15 51.318,14.998 C51.45,14.865 51.558,14.711 51.652,14.548 C51.676,14.506 51.699,14.465 51.721,14.421 C51.802,14.256 51.87,14.084 51.907,13.899 C51.909,13.887 51.908,13.875 51.911,13.863 C51.935,13.735 51.951,13.603 51.951,13.468 C51.951,13.422 51.94,13.38 51.938,13.335 C51.935,13.287 51.93,13.24 51.923,13.191 C51.898,13.001 51.857,12.816 51.786,12.644 C51.785,12.642 51.785,12.64 51.785,12.638 C51.785,12.638 51.784,12.637 51.784,12.637 C51.71,12.46 51.608,12.3 51.492,12.15 C51.461,12.109 51.429,12.071 51.395,12.033 C51.277,11.901 51.149,11.778 51.003,11.678 C50.983,11.665 50.962,11.655 50.942,11.642 C50.801,11.552 50.648,11.483 50.488,11.427 C50.441,11.411 50.394,11.396 50.345,11.383 C50.164,11.334 49.976,11.299 49.779,11.299 C49.779,11.299 49.779,11.299 49.778,11.299 C49.778,11.299 49.778,11.299 49.778,11.299 C48.93,11.299 48.201,11.793 47.845,12.504 C46.163,12.671 44.653,13.585 43.732,15.036 L41.338,18.836 C38.482,15.085 33.985,12.649 28.917,12.649 C24.19,12.649 19.956,14.768 17.089,18.097 L16.192,16.393 C15.054,14.231 12.932,12.81 10.539,12.538 C10.189,11.808 9.449,11.299 8.587,11.299 C7.39,11.299 6.416,12.273 6.416,13.469 C6.416,14.665 7.39,15.639 8.587,15.639 C9.394,15.639 10.092,15.19 10.466,14.534 C12.143,14.774 13.619,15.8 14.422,17.326 L15.765,19.878 C14.211,22.305 13.297,25.181 13.297,28.271 C13.297,31.166 14.103,33.869 15.48,36.196 L12.891,40.305 C12.353,41.169 11.474,41.735 10.484,41.891 Z M28.925,41.89 C24.367,41.89 20.334,39.631 17.861,36.182 L18.596,35.015 C19.768,33.12 21.415,31.615 23.367,30.629 C24.288,32.79 26.432,34.31 28.926,34.31 C31.393,34.31 33.516,32.821 34.453,30.696 C36.763,31.834 38.736,33.678 40.056,36.095 C37.588,39.594 33.523,41.89 28.925,41.89 Z M32.59,29.947 C31.951,31.337 30.553,32.31 28.926,32.31 C27.279,32.31 25.865,31.316 25.237,29.9 C27.723,29.184 30.266,29.228 32.59,29.947 Z M25.399,26.34 C26.086,25.09 27.4,24.23 28.925,24.23 C30.574,24.23 31.991,25.226 32.618,26.646 C30.161,27.254 27.669,27.113 25.399,26.34 Z M42.545,28.27 C42.545,30.365 42.056,32.343 41.207,34.118 C39.632,31.696 37.444,29.861 34.942,28.721 C34.953,28.571 34.965,28.422 34.965,28.27 C34.965,28.176 34.955,28.084 34.951,27.99 L34.974,27.981 C37.598,26.873 39.782,25.021 41.309,22.634 C42.096,24.354 42.545,26.259 42.545,28.27 Z M28.925,14.65 C33.613,14.65 37.754,17.031 40.206,20.647 L39.735,21.395 C38.476,23.433 36.664,25.016 34.516,25.992 C33.614,23.789 31.45,22.231 28.926,22.231 C26.577,22.231 24.543,23.582 23.544,25.545 C21.286,24.349 19.366,22.469 18.111,20.026 C20.602,16.765 24.516,14.65 28.925,14.65 Z M15.306,28.27 C15.306,25.978 15.881,23.82 16.885,21.922 C18.384,24.382 20.501,26.273 22.943,27.485 C22.909,27.742 22.886,28.003 22.886,28.269 C22.886,28.394 22.897,28.516 22.905,28.639 C20.418,29.794 18.344,31.619 16.9,33.955 L16.711,34.255 C15.82,32.447 15.306,30.42 15.306,28.27 Z"></path>
                </g>
            </g>
            <g id="Group" transform="translate(278.000000, 0.000000)" fill="#AAAAAA">
                <path d="M147.905,38.637 L159.565,38.637 C160.118,38.637 160.565,38.189 160.565,37.637 L160.565,25.977 C160.565,25.425 160.118,24.977 159.565,24.977 L147.905,24.977 C147.352,24.977 146.905,25.425 146.905,25.977 L146.905,37.637 C146.905,38.189 147.352,38.637 147.905,38.637 Z M148.905,26.977 L158.565,26.977 L158.565,36.637 L148.905,36.637 L148.905,26.977 Z" id="Shape"></path>
                <path d="M147.905,55.387 L159.565,55.387 C160.118,55.387 160.565,54.939 160.565,54.387 L160.565,42.727 C160.565,42.175 160.118,41.727 159.565,41.727 L147.905,41.727 C147.352,41.727 146.905,42.175 146.905,42.727 L146.905,54.387 C146.905,54.939 147.352,55.387 147.905,55.387 Z M148.905,43.727 L158.565,43.727 L158.565,53.387 L148.905,53.387 L148.905,43.727 Z" id="Shape"></path>
                <path d="M35.426,238.427 L64.676,238.427 C65.229,238.427 65.676,237.98 65.676,237.427 C65.676,236.874 65.229,236.427 64.676,236.427 L35.426,236.427 C34.873,236.427 34.426,236.874 34.426,237.427 C34.426,237.98 34.873,238.427 35.426,238.427 Z" id="Shape"></path>
                <path d="M35.096,243.427 L64.336,243.427 C64.889,243.427 65.336,242.98 65.336,242.427 C65.336,241.874 64.889,241.427 64.336,241.427 L35.096,241.427 C34.543,241.427 34.096,241.874 34.096,242.427 C34.096,242.98 34.543,243.427 35.096,243.427 Z" id="Shape"></path>
                <path d="M102.596,238.157 L131.836,238.157 C132.389,238.157 132.836,237.71 132.836,237.157 C132.836,236.604 132.389,236.157 131.836,236.157 L102.596,236.157 C102.043,236.157 101.596,236.604 101.596,237.157 C101.596,237.71 102.043,238.157 102.596,238.157 Z" id="Shape"></path>
                <path d="M102.265,243.157 L131.505,243.157 C132.058,243.157 132.505,242.71 132.505,242.157 C132.505,241.604 132.058,241.157 131.505,241.157 L102.265,241.157 C101.712,241.157 101.265,241.604 101.265,242.157 C101.265,242.71 101.713,243.157 102.265,243.157 Z" id="Shape"></path>
                <path d="M144.455,243.927 C146.893,243.927 148.876,241.945 148.876,239.507 C148.876,237.069 146.893,235.087 144.455,235.087 C142.017,235.087 140.035,237.069 140.035,239.507 C140.035,241.945 142.017,243.927 144.455,243.927 Z M144.455,237.087 C145.79,237.087 146.876,238.173 146.876,239.507 C146.876,240.841 145.79,241.927 144.455,241.927 C143.121,241.927 142.035,240.841 142.035,239.507 C142.035,238.173 143.121,237.087 144.455,237.087 Z" id="Shape"></path>
                <path d="M171.975,232.797 L167.335,232.797 L167.335,231.438 L167.335,1.657 C167.335,1.105 166.888,0.657 166.335,0.657 L31.495,0.657 C26.214,0.657 21.249,2.715 17.516,6.452 C13.784,10.188 11.731,15.155 11.736,20.436 L11.736,24.976 L7.096,24.976 C5.348,24.976 3.638,25.685 2.404,26.922 C1.151,28.177 0.463,29.845 0.466,31.616 C0.466,35.272 3.441,38.246 7.096,38.246 L11.736,38.246 L11.736,100.041 L7.096,100.041 C5.348,100.041 3.638,100.75 2.404,101.987 C1.151,103.242 0.463,104.91 0.466,106.681 C0.466,110.337 3.441,113.311 7.096,113.311 L11.736,113.311 L11.736,231.436 L11.736,247.386 C11.736,247.939 12.183,248.386 12.736,248.386 L166.337,248.386 C166.89,248.386 167.337,247.939 167.337,247.386 L167.337,246.035 L171.977,246.035 C175.621,246.035 178.594,243.071 178.607,239.425 C178.605,235.771 175.631,232.797 171.975,232.797 Z M11.725,36.247 L7.095,36.247 C4.542,36.247 2.465,34.17 2.465,31.615 C2.463,30.377 2.944,29.212 3.819,28.336 C4.68,27.472 5.875,26.977 7.095,26.977 L11.725,26.977 L11.725,36.247 Z M11.725,111.312 L7.095,111.312 C4.542,111.312 2.465,109.235 2.465,106.68 C2.463,105.442 2.944,104.277 3.819,103.401 C4.68,102.537 5.875,102.042 7.095,102.042 L11.725,102.042 L11.725,111.312 Z M74.245,80.107 L21.115,80.107 L21.115,26.977 L74.245,26.977 L74.245,80.107 Z M140.56,80.107 L87.43,80.107 L87.43,26.977 L140.56,26.977 L140.56,80.107 Z M13.735,82.107 L20.115,82.107 L75.245,82.107 L86.43,82.107 L141.56,82.107 L165.336,82.107 L165.336,155.172 L142.56,155.172 L142.56,101.042 C142.56,100.49 142.113,100.042 141.56,100.042 L86.43,100.042 C85.877,100.042 85.43,100.49 85.43,101.042 L85.43,155.172 L76.245,155.172 L76.245,101.042 C76.245,100.49 75.798,100.042 75.245,100.042 L20.115,100.042 C19.562,100.042 19.115,100.49 19.115,101.042 L19.115,155.172 L13.735,155.172 L13.735,82.107 L13.735,82.107 Z M140.56,155.172 L87.43,155.172 L87.43,102.042 L140.56,102.042 L140.56,155.172 Z M74.245,155.172 L21.115,155.172 L21.115,102.042 L74.245,102.042 L74.245,155.172 Z M20.115,157.172 L75.245,157.172 L86.43,157.172 L141.56,157.172 L165.336,157.172 L165.336,230.37 L142.56,230.37 L142.56,176.24 C142.56,175.688 142.113,175.24 141.56,175.24 L86.43,175.24 C85.877,175.24 85.43,175.688 85.43,176.24 L85.43,230.37 L76.245,230.37 L76.245,176.24 C76.245,175.688 75.798,175.24 75.245,175.24 L20.115,175.24 C19.562,175.24 19.115,175.688 19.115,176.24 L19.115,230.37 L13.735,230.37 L13.735,157.172 L20.115,157.172 L20.115,157.172 Z M140.56,230.37 L87.43,230.37 L87.43,177.24 L140.56,177.24 L140.56,230.37 Z M74.245,230.37 L21.115,230.37 L21.115,177.24 L74.245,177.24 L74.245,230.37 Z M18.93,7.865 C22.286,4.506 26.748,2.657 31.495,2.657 L165.336,2.657 L165.336,80.107 L142.56,80.107 L142.56,25.977 C142.56,25.425 142.113,24.977 141.56,24.977 L86.43,24.977 C85.877,24.977 85.43,25.425 85.43,25.977 L85.43,80.107 L76.245,80.107 L76.245,25.977 C76.245,25.425 75.798,24.977 75.245,24.977 L20.115,24.977 C19.562,24.977 19.115,25.425 19.115,25.977 L19.115,80.107 L13.735,80.107 L13.735,20.436 C13.73,15.688 15.575,11.224 18.93,7.865 Z M165.336,246.387 L13.735,246.387 L13.735,232.437 L165.336,232.437 L165.336,246.387 Z M171.975,244.037 L167.345,244.037 L167.345,234.797 L171.975,234.797 C174.528,234.797 176.605,236.874 176.605,239.423 C176.596,241.968 174.519,244.037 171.975,244.037 Z" id="Shape"></path>
                <path d="M28.974,66.628 C28.603,65.963 27.9,65.507 27.086,65.507 C25.889,65.507 24.915,66.481 24.915,67.677 C24.915,68.873 25.889,69.847 27.086,69.847 C27.935,69.847 28.665,69.352 29.021,68.639 C30.683,68.459 32.172,67.546 33.081,66.11 L35.211,62.729 C38.075,66.318 42.477,68.627 47.415,68.627 C52.331,68.627 56.717,66.339 59.582,62.779 L60.621,64.753 C61.771,66.936 63.922,68.361 66.342,68.614 C66.377,68.689 66.404,68.768 66.448,68.838 C66.462,68.86 66.473,68.883 66.488,68.904 C66.587,69.048 66.707,69.174 66.838,69.29 C66.878,69.326 66.918,69.359 66.961,69.392 C67.108,69.505 67.266,69.606 67.439,69.679 C67.441,69.68 67.443,69.682 67.445,69.683 C67.521,69.715 67.6,69.731 67.678,69.754 C67.734,69.77 67.787,69.793 67.845,69.805 C67.989,69.834 68.134,69.85 68.278,69.85 C68.424,69.85 68.569,69.834 68.712,69.804 C68.721,69.802 68.729,69.798 68.737,69.796 C68.866,69.768 68.993,69.73 69.115,69.678 C69.146,69.665 69.174,69.645 69.205,69.63 C69.301,69.584 69.396,69.538 69.485,69.478 C69.546,69.437 69.598,69.386 69.654,69.339 C69.705,69.296 69.761,69.26 69.808,69.212 C69.81,69.21 69.811,69.208 69.812,69.206 C69.944,69.073 70.052,68.919 70.146,68.756 C70.17,68.714 70.193,68.673 70.215,68.629 C70.296,68.464 70.364,68.292 70.401,68.107 C70.403,68.095 70.402,68.083 70.405,68.071 C70.429,67.943 70.445,67.811 70.445,67.676 C70.445,67.63 70.434,67.588 70.432,67.543 C70.429,67.495 70.424,67.448 70.417,67.399 C70.392,67.209 70.351,67.024 70.28,66.852 C70.279,66.85 70.279,66.848 70.279,66.846 C70.279,66.846 70.278,66.845 70.278,66.845 C70.204,66.668 70.102,66.508 69.986,66.358 C69.955,66.317 69.923,66.279 69.889,66.241 C69.771,66.109 69.643,65.986 69.497,65.886 C69.477,65.873 69.456,65.863 69.436,65.85 C69.295,65.76 69.142,65.691 68.982,65.635 C68.935,65.619 68.888,65.604 68.839,65.591 C68.658,65.542 68.47,65.507 68.273,65.507 C68.273,65.507 68.273,65.507 68.272,65.507 C68.272,65.507 68.272,65.507 68.272,65.507 C67.463,65.507 66.764,65.958 66.391,66.616 C64.695,66.389 63.199,65.361 62.387,63.821 L60.858,60.916 C62.23,58.593 63.031,55.895 63.031,53.007 C63.031,50.247 62.304,47.656 61.043,45.403 L63.916,40.843 C64.474,39.963 65.375,39.39 66.387,39.246 C66.408,39.285 66.42,39.329 66.444,39.367 C66.458,39.389 66.469,39.412 66.484,39.433 C66.583,39.577 66.703,39.703 66.834,39.819 C66.874,39.855 66.914,39.888 66.957,39.921 C67.104,40.034 67.262,40.135 67.435,40.208 C67.437,40.209 67.439,40.211 67.441,40.212 C67.517,40.244 67.596,40.26 67.674,40.283 C67.73,40.299 67.783,40.322 67.841,40.334 C67.985,40.363 68.13,40.379 68.274,40.379 C68.42,40.379 68.565,40.363 68.708,40.333 C68.717,40.331 68.725,40.327 68.733,40.325 C68.862,40.297 68.989,40.259 69.111,40.207 C69.142,40.194 69.17,40.174 69.201,40.159 C69.297,40.113 69.392,40.067 69.481,40.007 C69.542,39.966 69.594,39.915 69.65,39.868 C69.701,39.825 69.757,39.789 69.804,39.741 C69.806,39.739 69.807,39.737 69.808,39.735 C69.94,39.602 70.048,39.448 70.142,39.285 C70.166,39.243 70.189,39.202 70.211,39.158 C70.292,38.993 70.36,38.821 70.397,38.636 C70.399,38.624 70.398,38.612 70.401,38.6 C70.425,38.472 70.441,38.34 70.441,38.205 C70.441,38.159 70.43,38.117 70.428,38.072 C70.425,38.024 70.42,37.977 70.413,37.928 C70.388,37.738 70.347,37.553 70.276,37.381 C70.275,37.379 70.275,37.377 70.275,37.375 C70.275,37.375 70.274,37.374 70.274,37.374 C70.2,37.197 70.098,37.037 69.982,36.887 C69.951,36.846 69.919,36.808 69.885,36.77 C69.767,36.638 69.639,36.515 69.493,36.415 C69.473,36.402 69.452,36.392 69.432,36.379 C69.291,36.289 69.138,36.22 68.978,36.164 C68.931,36.148 68.884,36.133 68.835,36.12 C68.654,36.071 68.466,36.036 68.269,36.036 C68.269,36.036 68.269,36.036 68.268,36.036 C68.268,36.036 68.268,36.036 68.268,36.036 C67.42,36.036 66.691,36.53 66.335,37.241 C64.653,37.408 63.143,38.322 62.222,39.773 L59.828,43.573 C56.972,39.822 52.475,37.386 47.407,37.386 C42.68,37.386 38.446,39.505 35.579,42.834 L34.682,41.13 C33.544,38.968 31.422,37.547 29.029,37.275 C28.679,36.545 27.939,36.036 27.077,36.036 C25.88,36.036 24.906,37.01 24.906,38.206 C24.906,39.402 25.88,40.376 27.077,40.376 C27.884,40.376 28.582,39.927 28.956,39.271 C30.633,39.511 32.109,40.537 32.912,42.063 L34.255,44.615 C32.701,47.042 31.787,49.918 31.787,53.008 C31.787,55.903 32.593,58.606 33.97,60.933 L31.381,65.042 C30.843,65.906 29.964,66.472 28.974,66.628 Z M47.415,66.627 C42.857,66.627 38.824,64.368 36.351,60.919 L37.086,59.752 C38.258,57.857 39.905,56.352 41.857,55.366 C42.778,57.527 44.922,59.047 47.416,59.047 C49.883,59.047 52.006,57.558 52.943,55.433 C55.253,56.571 57.226,58.415 58.546,60.832 C56.077,64.331 52.012,66.627 47.415,66.627 Z M51.079,54.684 C50.44,56.074 49.042,57.047 47.415,57.047 C45.768,57.047 44.354,56.053 43.726,54.637 C46.213,53.921 48.755,53.965 51.079,54.684 Z M43.889,51.077 C44.576,49.827 45.89,48.967 47.415,48.967 C49.064,48.967 50.481,49.963 51.108,51.383 C48.65,51.991 46.158,51.85 43.889,51.077 Z M61.035,53.007 C61.035,55.102 60.546,57.08 59.697,58.855 C58.122,56.433 55.934,54.598 53.432,53.458 C53.443,53.308 53.455,53.159 53.455,53.007 C53.455,52.913 53.445,52.821 53.441,52.727 L53.464,52.718 C56.088,51.61 58.272,49.758 59.799,47.371 C60.585,49.091 61.035,50.996 61.035,53.007 Z M47.415,39.387 C52.103,39.387 56.244,41.768 58.696,45.384 L58.225,46.132 C56.966,48.17 55.154,49.753 53.006,50.729 C52.104,48.526 49.94,46.968 47.416,46.968 C45.067,46.968 43.033,48.319 42.034,50.282 C39.776,49.086 37.856,47.206 36.601,44.763 C39.091,41.502 43.006,39.387 47.415,39.387 Z M33.796,53.007 C33.796,50.715 34.371,48.557 35.375,46.659 C36.874,49.119 38.991,51.01 41.433,52.222 C41.399,52.479 41.376,52.74 41.376,53.006 C41.376,53.131 41.387,53.253 41.395,53.376 C38.908,54.531 36.834,56.356 35.39,58.692 L35.201,58.992 C34.31,57.184 33.796,55.157 33.796,53.007 Z" id="Shape"></path>
                <path d="M95.289,66.628 C94.918,65.963 94.215,65.507 93.401,65.507 C92.204,65.507 91.23,66.481 91.23,67.677 C91.23,68.873 92.204,69.847 93.401,69.847 C94.25,69.847 94.98,69.352 95.336,68.639 C96.998,68.459 98.487,67.546 99.396,66.11 L101.526,62.729 C104.39,66.318 108.792,68.627 113.73,68.627 C118.646,68.627 123.032,66.339 125.897,62.779 L126.936,64.753 C128.086,66.936 130.237,68.361 132.657,68.614 C132.692,68.689 132.719,68.768 132.763,68.838 C132.777,68.86 132.788,68.883 132.803,68.904 C132.902,69.048 133.022,69.174 133.153,69.29 C133.193,69.326 133.233,69.359 133.276,69.392 C133.423,69.505 133.581,69.606 133.754,69.679 C133.756,69.68 133.758,69.682 133.76,69.683 C133.836,69.715 133.915,69.731 133.993,69.754 C134.049,69.77 134.102,69.793 134.16,69.805 C134.304,69.834 134.449,69.85 134.593,69.85 C134.739,69.85 134.884,69.834 135.027,69.804 C135.036,69.802 135.044,69.798 135.052,69.796 C135.181,69.768 135.308,69.73 135.43,69.678 C135.461,69.665 135.489,69.645 135.52,69.63 C135.616,69.584 135.711,69.538 135.8,69.478 C135.861,69.437 135.913,69.386 135.969,69.339 C136.02,69.296 136.076,69.26 136.123,69.212 C136.125,69.21 136.126,69.208 136.127,69.206 C136.259,69.073 136.367,68.919 136.461,68.756 C136.485,68.714 136.508,68.673 136.53,68.629 C136.611,68.464 136.679,68.292 136.716,68.107 C136.718,68.095 136.717,68.083 136.72,68.071 C136.744,67.943 136.76,67.811 136.76,67.676 C136.76,67.63 136.749,67.588 136.747,67.543 C136.744,67.495 136.739,67.448 136.732,67.399 C136.707,67.209 136.666,67.024 136.595,66.852 C136.594,66.85 136.594,66.848 136.594,66.846 C136.594,66.846 136.593,66.845 136.593,66.845 C136.519,66.668 136.417,66.508 136.301,66.358 C136.27,66.317 136.238,66.279 136.204,66.241 C136.086,66.109 135.958,65.986 135.812,65.886 C135.792,65.873 135.771,65.863 135.751,65.85 C135.61,65.76 135.457,65.691 135.297,65.635 C135.25,65.619 135.203,65.604 135.154,65.591 C134.973,65.542 134.785,65.507 134.588,65.507 C134.588,65.507 134.588,65.507 134.587,65.507 C134.587,65.507 134.587,65.507 134.587,65.507 C133.778,65.507 133.079,65.958 132.706,66.616 C131.01,66.389 129.514,65.361 128.702,63.821 L127.173,60.916 C128.545,58.593 129.346,55.895 129.346,53.007 C129.346,50.247 128.619,47.656 127.358,45.403 L130.231,40.843 C130.789,39.963 131.69,39.39 132.702,39.246 C132.723,39.285 132.735,39.329 132.759,39.367 C132.773,39.389 132.784,39.412 132.799,39.433 C132.898,39.577 133.018,39.703 133.149,39.819 C133.189,39.855 133.229,39.888 133.272,39.921 C133.419,40.034 133.577,40.135 133.75,40.208 C133.752,40.209 133.754,40.211 133.756,40.212 C133.832,40.244 133.911,40.26 133.989,40.283 C134.045,40.299 134.098,40.322 134.156,40.334 C134.3,40.363 134.445,40.379 134.589,40.379 C134.735,40.379 134.88,40.363 135.023,40.333 C135.032,40.331 135.04,40.327 135.048,40.325 C135.177,40.297 135.304,40.259 135.426,40.207 C135.457,40.194 135.485,40.174 135.516,40.159 C135.612,40.113 135.707,40.067 135.796,40.007 C135.857,39.966 135.909,39.915 135.965,39.868 C136.016,39.825 136.072,39.789 136.119,39.741 C136.121,39.739 136.122,39.737 136.123,39.735 C136.255,39.602 136.363,39.448 136.457,39.285 C136.481,39.243 136.504,39.202 136.526,39.158 C136.607,38.993 136.675,38.821 136.712,38.636 C136.714,38.624 136.713,38.612 136.716,38.6 C136.74,38.472 136.756,38.34 136.756,38.205 C136.756,38.159 136.745,38.117 136.743,38.072 C136.74,38.024 136.735,37.977 136.728,37.928 C136.703,37.738 136.662,37.553 136.591,37.381 C136.59,37.379 136.59,37.377 136.59,37.375 C136.59,37.375 136.589,37.374 136.589,37.374 C136.515,37.197 136.413,37.037 136.297,36.887 C136.266,36.846 136.234,36.808 136.2,36.77 C136.082,36.638 135.954,36.515 135.808,36.415 C135.788,36.402 135.767,36.392 135.747,36.379 C135.606,36.289 135.453,36.22 135.293,36.164 C135.246,36.148 135.199,36.133 135.15,36.12 C134.969,36.071 134.781,36.036 134.584,36.036 C134.584,36.036 134.584,36.036 134.583,36.036 C134.583,36.036 134.583,36.036 134.583,36.036 C133.735,36.036 133.006,36.53 132.65,37.241 C130.968,37.408 129.458,38.322 128.537,39.773 L126.143,43.573 C123.287,39.822 118.79,37.386 113.722,37.386 C108.995,37.386 104.761,39.505 101.894,42.834 L100.997,41.13 C99.859,38.968 97.737,37.547 95.344,37.275 C94.994,36.545 94.254,36.036 93.392,36.036 C92.195,36.036 91.221,37.01 91.221,38.206 C91.221,39.402 92.195,40.376 93.392,40.376 C94.199,40.376 94.897,39.927 95.271,39.271 C96.948,39.511 98.424,40.537 99.227,42.063 L100.57,44.615 C99.016,47.042 98.102,49.918 98.102,53.008 C98.102,55.903 98.908,58.606 100.285,60.933 L97.696,65.042 C97.158,65.906 96.279,66.472 95.289,66.628 Z M113.73,66.627 C109.172,66.627 105.139,64.368 102.666,60.919 L103.401,59.752 C104.573,57.857 106.22,56.352 108.172,55.366 C109.093,57.527 111.237,59.047 113.731,59.047 C116.198,59.047 118.321,57.558 119.258,55.433 C121.568,56.571 123.541,58.415 124.861,60.832 C122.392,64.331 118.328,66.627 113.73,66.627 Z M117.395,54.684 C116.756,56.074 115.358,57.047 113.731,57.047 C112.084,57.047 110.67,56.053 110.042,54.637 C112.528,53.921 115.071,53.965 117.395,54.684 Z M110.204,51.077 C110.891,49.827 112.205,48.967 113.73,48.967 C115.379,48.967 116.796,49.963 117.423,51.383 C114.965,51.991 112.473,51.85 110.204,51.077 Z M127.35,53.007 C127.35,55.102 126.861,57.08 126.012,58.855 C124.437,56.433 122.249,54.598 119.747,53.458 C119.758,53.308 119.77,53.159 119.77,53.007 C119.77,52.913 119.76,52.821 119.756,52.727 L119.779,52.718 C122.403,51.61 124.587,49.758 126.114,47.371 C126.9,49.091 127.35,50.996 127.35,53.007 Z M113.73,39.387 C118.418,39.387 122.559,41.768 125.011,45.384 L124.54,46.132 C123.281,48.17 121.469,49.753 119.321,50.729 C118.419,48.526 116.255,46.968 113.731,46.968 C111.382,46.968 109.348,48.319 108.349,50.282 C106.091,49.086 104.171,47.206 102.916,44.763 C105.407,41.502 109.321,39.387 113.73,39.387 Z M100.111,53.007 C100.111,50.715 100.686,48.557 101.69,46.659 C103.189,49.119 105.306,51.01 107.748,52.222 C107.714,52.479 107.691,52.74 107.691,53.006 C107.691,53.131 107.702,53.253 107.71,53.376 C105.223,54.531 103.149,56.356 101.705,58.692 L101.516,58.992 C100.625,57.184 100.111,55.157 100.111,53.007 Z" id="Shape"></path>
                <path d="M147.905,113.702 L159.565,113.702 C160.118,113.702 160.565,113.254 160.565,112.702 L160.565,101.042 C160.565,100.49 160.118,100.042 159.565,100.042 L147.905,100.042 C147.352,100.042 146.905,100.49 146.905,101.042 L146.905,112.702 C146.905,113.254 147.352,113.702 147.905,113.702 Z M148.905,102.042 L158.565,102.042 L158.565,111.702 L148.905,111.702 L148.905,102.042 Z" id="Shape"></path>
                <path d="M147.905,130.452 L159.565,130.452 C160.118,130.452 160.565,130.004 160.565,129.452 L160.565,117.792 C160.565,117.24 160.118,116.792 159.565,116.792 L147.905,116.792 C147.352,116.792 146.905,117.24 146.905,117.792 L146.905,129.452 C146.905,130.004 147.352,130.452 147.905,130.452 Z M148.905,118.792 L158.565,118.792 L158.565,128.452 L148.905,128.452 L148.905,118.792 Z" id="Shape"></path>
                <path d="M28.974,141.693 C28.603,141.028 27.9,140.572 27.086,140.572 C25.889,140.572 24.915,141.546 24.915,142.742 C24.915,143.938 25.889,144.912 27.086,144.912 C27.935,144.912 28.665,144.417 29.021,143.704 C30.683,143.524 32.172,142.611 33.081,141.175 L35.211,137.794 C38.075,141.383 42.477,143.692 47.415,143.692 C52.331,143.692 56.717,141.404 59.582,137.844 L60.621,139.818 C61.771,142.001 63.922,143.426 66.342,143.679 C66.377,143.754 66.404,143.833 66.448,143.903 C66.462,143.925 66.473,143.948 66.488,143.969 C66.587,144.113 66.707,144.239 66.838,144.355 C66.878,144.391 66.918,144.424 66.961,144.457 C67.108,144.57 67.266,144.671 67.439,144.744 C67.441,144.745 67.443,144.747 67.445,144.748 C67.521,144.78 67.6,144.796 67.678,144.819 C67.734,144.835 67.787,144.858 67.845,144.87 C67.989,144.899 68.134,144.915 68.278,144.915 C68.424,144.915 68.569,144.899 68.712,144.869 C68.721,144.867 68.729,144.863 68.737,144.861 C68.866,144.833 68.993,144.795 69.115,144.743 C69.146,144.73 69.174,144.71 69.205,144.695 C69.301,144.649 69.396,144.603 69.485,144.543 C69.546,144.502 69.598,144.451 69.654,144.404 C69.705,144.361 69.761,144.325 69.808,144.277 C69.81,144.275 69.811,144.273 69.812,144.271 C69.944,144.138 70.052,143.984 70.146,143.821 C70.17,143.779 70.193,143.738 70.215,143.694 C70.296,143.529 70.364,143.357 70.401,143.172 C70.403,143.16 70.402,143.148 70.405,143.136 C70.429,143.008 70.445,142.876 70.445,142.741 C70.445,142.695 70.434,142.653 70.432,142.608 C70.429,142.56 70.424,142.513 70.417,142.464 C70.392,142.274 70.351,142.089 70.28,141.917 C70.279,141.915 70.279,141.913 70.279,141.911 C70.279,141.911 70.278,141.91 70.278,141.91 C70.204,141.733 70.102,141.573 69.986,141.423 C69.955,141.382 69.923,141.344 69.889,141.306 C69.771,141.174 69.643,141.051 69.497,140.951 C69.477,140.938 69.456,140.928 69.436,140.915 C69.295,140.825 69.142,140.756 68.982,140.7 C68.935,140.684 68.888,140.669 68.839,140.656 C68.658,140.607 68.47,140.572 68.273,140.572 C68.273,140.572 68.273,140.572 68.272,140.572 C68.272,140.572 68.272,140.572 68.272,140.572 C67.463,140.572 66.764,141.023 66.391,141.681 C64.695,141.454 63.199,140.426 62.387,138.886 L60.858,135.981 C62.23,133.658 63.031,130.96 63.031,128.072 C63.031,125.312 62.304,122.721 61.043,120.468 L63.916,115.908 C64.474,115.028 65.375,114.455 66.387,114.311 C66.408,114.35 66.42,114.394 66.444,114.432 C66.458,114.454 66.469,114.477 66.484,114.498 C66.583,114.642 66.703,114.768 66.834,114.884 C66.874,114.92 66.914,114.953 66.957,114.986 C67.104,115.099 67.262,115.2 67.435,115.273 C67.437,115.274 67.439,115.276 67.441,115.277 C67.517,115.309 67.596,115.325 67.674,115.348 C67.73,115.364 67.783,115.387 67.841,115.399 C67.985,115.428 68.13,115.444 68.274,115.444 C68.42,115.444 68.565,115.428 68.708,115.398 C68.717,115.396 68.725,115.392 68.733,115.39 C68.862,115.362 68.989,115.324 69.111,115.272 C69.142,115.259 69.17,115.239 69.201,115.224 C69.297,115.178 69.392,115.132 69.481,115.072 C69.542,115.031 69.594,114.98 69.65,114.933 C69.701,114.89 69.757,114.854 69.804,114.806 C69.806,114.804 69.807,114.802 69.808,114.8 C69.94,114.667 70.048,114.513 70.142,114.35 C70.166,114.308 70.189,114.267 70.211,114.223 C70.292,114.058 70.36,113.886 70.397,113.701 C70.399,113.689 70.398,113.677 70.401,113.665 C70.425,113.537 70.441,113.405 70.441,113.27 C70.441,113.224 70.43,113.182 70.428,113.137 C70.425,113.089 70.42,113.042 70.413,112.993 C70.388,112.803 70.347,112.618 70.276,112.446 C70.275,112.444 70.275,112.442 70.275,112.44 C70.275,112.44 70.274,112.439 70.274,112.439 C70.2,112.262 70.098,112.102 69.982,111.952 C69.951,111.911 69.919,111.873 69.885,111.835 C69.767,111.703 69.639,111.58 69.493,111.48 C69.473,111.467 69.452,111.457 69.432,111.444 C69.291,111.354 69.138,111.285 68.978,111.229 C68.931,111.213 68.884,111.198 68.835,111.185 C68.654,111.136 68.466,111.101 68.269,111.101 C68.269,111.101 68.269,111.101 68.268,111.101 C68.268,111.101 68.268,111.101 68.268,111.101 C67.42,111.101 66.691,111.595 66.335,112.306 C64.653,112.473 63.143,113.387 62.222,114.838 L59.828,118.638 C56.972,114.887 52.475,112.451 47.407,112.451 C42.68,112.451 38.446,114.57 35.579,117.899 L34.682,116.195 C33.544,114.033 31.422,112.612 29.029,112.34 C28.679,111.61 27.939,111.101 27.077,111.101 C25.88,111.101 24.906,112.075 24.906,113.271 C24.906,114.467 25.88,115.441 27.077,115.441 C27.884,115.441 28.582,114.992 28.956,114.336 C30.633,114.576 32.109,115.602 32.912,117.128 L34.255,119.68 C32.701,122.107 31.787,124.983 31.787,128.073 C31.787,130.968 32.593,133.671 33.97,135.998 L31.381,140.107 C30.843,140.971 29.964,141.537 28.974,141.693 Z M47.415,141.692 C42.857,141.692 38.824,139.433 36.351,135.984 L37.086,134.817 C38.258,132.922 39.905,131.417 41.857,130.431 C42.778,132.592 44.922,134.112 47.416,134.112 C49.883,134.112 52.006,132.623 52.943,130.498 C55.253,131.636 57.226,133.48 58.546,135.897 C56.077,139.396 52.012,141.692 47.415,141.692 Z M51.079,129.749 C50.44,131.139 49.042,132.112 47.415,132.112 C45.768,132.112 44.354,131.118 43.726,129.702 C46.213,128.986 48.755,129.03 51.079,129.749 Z M43.889,126.142 C44.576,124.892 45.89,124.032 47.415,124.032 C49.064,124.032 50.481,125.028 51.108,126.448 C48.65,127.056 46.158,126.915 43.889,126.142 Z M61.035,128.072 C61.035,130.167 60.546,132.145 59.697,133.92 C58.122,131.498 55.934,129.663 53.432,128.523 C53.443,128.373 53.455,128.224 53.455,128.072 C53.455,127.978 53.445,127.886 53.441,127.792 L53.464,127.783 C56.088,126.675 58.272,124.823 59.799,122.436 C60.585,124.156 61.035,126.061 61.035,128.072 Z M47.415,114.452 C52.103,114.452 56.244,116.833 58.696,120.449 L58.225,121.197 C56.966,123.235 55.154,124.818 53.006,125.794 C52.104,123.591 49.94,122.033 47.416,122.033 C45.067,122.033 43.033,123.384 42.034,125.347 C39.776,124.151 37.856,122.271 36.601,119.828 C39.091,116.567 43.006,114.452 47.415,114.452 Z M33.796,128.072 C33.796,125.78 34.371,123.622 35.375,121.724 C36.874,124.184 38.991,126.075 41.433,127.287 C41.399,127.544 41.376,127.805 41.376,128.071 C41.376,128.196 41.387,128.318 41.395,128.441 C38.908,129.596 36.834,131.421 35.39,133.757 L35.201,134.057 C34.31,132.249 33.796,130.222 33.796,128.072 Z" id="Shape"></path>
                <path d="M95.289,141.693 C94.918,141.028 94.215,140.572 93.401,140.572 C92.204,140.572 91.23,141.546 91.23,142.742 C91.23,143.938 92.204,144.912 93.401,144.912 C94.25,144.912 94.98,144.417 95.336,143.704 C96.998,143.524 98.487,142.611 99.396,141.175 L101.526,137.794 C104.39,141.383 108.792,143.692 113.73,143.692 C118.646,143.692 123.032,141.404 125.897,137.844 L126.936,139.818 C128.086,142.001 130.237,143.426 132.657,143.679 C132.692,143.754 132.719,143.833 132.763,143.903 C132.777,143.925 132.788,143.948 132.803,143.969 C132.902,144.113 133.022,144.239 133.153,144.355 C133.193,144.391 133.233,144.424 133.276,144.457 C133.423,144.57 133.581,144.671 133.754,144.744 C133.756,144.745 133.758,144.747 133.76,144.748 C133.836,144.78 133.915,144.796 133.993,144.819 C134.049,144.835 134.102,144.858 134.16,144.87 C134.304,144.899 134.449,144.915 134.593,144.915 C134.739,144.915 134.884,144.899 135.027,144.869 C135.036,144.867 135.044,144.863 135.052,144.861 C135.181,144.833 135.308,144.795 135.43,144.743 C135.461,144.73 135.489,144.71 135.52,144.695 C135.616,144.649 135.711,144.603 135.8,144.543 C135.861,144.502 135.913,144.451 135.969,144.404 C136.02,144.361 136.076,144.325 136.123,144.277 C136.125,144.275 136.126,144.273 136.127,144.271 C136.259,144.138 136.367,143.984 136.461,143.821 C136.485,143.779 136.508,143.738 136.53,143.694 C136.611,143.529 136.679,143.357 136.716,143.172 C136.718,143.16 136.717,143.148 136.72,143.136 C136.744,143.008 136.76,142.876 136.76,142.741 C136.76,142.695 136.749,142.653 136.747,142.608 C136.744,142.56 136.739,142.513 136.732,142.464 C136.707,142.274 136.666,142.089 136.595,141.917 C136.594,141.915 136.594,141.913 136.594,141.911 C136.594,141.911 136.593,141.91 136.593,141.91 C136.519,141.733 136.417,141.573 136.301,141.423 C136.27,141.382 136.238,141.344 136.204,141.306 C136.086,141.174 135.958,141.051 135.812,140.951 C135.792,140.938 135.771,140.928 135.751,140.915 C135.61,140.825 135.457,140.756 135.297,140.7 C135.25,140.684 135.203,140.669 135.154,140.656 C134.973,140.607 134.785,140.572 134.588,140.572 C134.588,140.572 134.588,140.572 134.587,140.572 C134.587,140.572 134.587,140.572 134.587,140.572 C133.778,140.572 133.079,141.023 132.706,141.681 C131.01,141.454 129.514,140.426 128.702,138.886 L127.173,135.981 C128.545,133.658 129.346,130.96 129.346,128.072 C129.346,125.312 128.619,122.721 127.358,120.468 L130.231,115.908 C130.789,115.028 131.69,114.455 132.702,114.311 C132.723,114.35 132.735,114.394 132.759,114.432 C132.773,114.454 132.784,114.477 132.799,114.498 C132.898,114.642 133.018,114.768 133.149,114.884 C133.189,114.92 133.229,114.953 133.272,114.986 C133.419,115.099 133.577,115.2 133.75,115.273 C133.752,115.274 133.754,115.276 133.756,115.277 C133.832,115.309 133.911,115.325 133.989,115.348 C134.045,115.364 134.098,115.387 134.156,115.399 C134.3,115.428 134.445,115.444 134.589,115.444 C134.735,115.444 134.88,115.428 135.023,115.398 C135.032,115.396 135.04,115.392 135.048,115.39 C135.177,115.362 135.304,115.324 135.426,115.272 C135.457,115.259 135.485,115.239 135.516,115.224 C135.612,115.178 135.707,115.132 135.796,115.072 C135.857,115.031 135.909,114.98 135.965,114.933 C136.016,114.89 136.072,114.854 136.119,114.806 C136.121,114.804 136.122,114.802 136.123,114.8 C136.255,114.667 136.363,114.513 136.457,114.35 C136.481,114.308 136.504,114.267 136.526,114.223 C136.607,114.058 136.675,113.886 136.712,113.701 C136.714,113.689 136.713,113.677 136.716,113.665 C136.74,113.537 136.756,113.405 136.756,113.27 C136.756,113.224 136.745,113.182 136.743,113.137 C136.74,113.089 136.735,113.042 136.728,112.993 C136.703,112.803 136.662,112.618 136.591,112.446 C136.59,112.444 136.59,112.442 136.59,112.44 C136.59,112.44 136.589,112.439 136.589,112.439 C136.515,112.262 136.413,112.102 136.297,111.952 C136.266,111.911 136.234,111.873 136.2,111.835 C136.082,111.703 135.954,111.58 135.808,111.48 C135.788,111.467 135.767,111.457 135.747,111.444 C135.606,111.354 135.453,111.285 135.293,111.229 C135.246,111.213 135.199,111.198 135.15,111.185 C134.969,111.136 134.781,111.101 134.584,111.101 C134.584,111.101 134.584,111.101 134.583,111.101 C134.583,111.101 134.583,111.101 134.583,111.101 C133.735,111.101 133.006,111.595 132.65,112.306 C130.968,112.473 129.458,113.387 128.537,114.838 L126.143,118.638 C123.287,114.887 118.79,112.451 113.722,112.451 C108.995,112.451 104.761,114.57 101.894,117.899 L100.997,116.195 C99.859,114.033 97.737,112.612 95.344,112.34 C94.994,111.61 94.254,111.101 93.392,111.101 C92.195,111.101 91.221,112.075 91.221,113.271 C91.221,114.467 92.195,115.441 93.392,115.441 C94.199,115.441 94.897,114.992 95.271,114.336 C96.948,114.576 98.424,115.602 99.227,117.128 L100.57,119.68 C99.016,122.107 98.102,124.983 98.102,128.073 C98.102,130.968 98.908,133.671 100.285,135.998 L97.696,140.107 C97.158,140.971 96.279,141.537 95.289,141.693 Z M113.73,141.692 C109.172,141.692 105.139,139.433 102.666,135.984 L103.401,134.817 C104.573,132.922 106.22,131.417 108.172,130.431 C109.093,132.592 111.237,134.112 113.731,134.112 C116.198,134.112 118.321,132.623 119.258,130.498 C121.568,131.636 123.541,133.48 124.861,135.897 C122.392,139.396 118.328,141.692 113.73,141.692 Z M117.395,129.749 C116.756,131.139 115.358,132.112 113.731,132.112 C112.084,132.112 110.67,131.118 110.042,129.702 C112.528,128.986 115.071,129.03 117.395,129.749 Z M110.204,126.142 C110.891,124.892 112.205,124.032 113.73,124.032 C115.379,124.032 116.796,125.028 117.423,126.448 C114.965,127.056 112.473,126.915 110.204,126.142 Z M127.35,128.072 C127.35,130.167 126.861,132.145 126.012,133.92 C124.437,131.498 122.249,129.663 119.747,128.523 C119.758,128.373 119.77,128.224 119.77,128.072 C119.77,127.978 119.76,127.886 119.756,127.792 L119.779,127.783 C122.403,126.675 124.587,124.823 126.114,122.436 C126.9,124.156 127.35,126.061 127.35,128.072 Z M113.73,114.452 C118.418,114.452 122.559,116.833 125.011,120.449 L124.54,121.197 C123.281,123.235 121.469,124.818 119.321,125.794 C118.419,123.591 116.255,122.033 113.731,122.033 C111.382,122.033 109.348,123.384 108.349,125.347 C106.091,124.151 104.171,122.271 102.916,119.828 C105.407,116.567 109.321,114.452 113.73,114.452 Z M100.111,128.072 C100.111,125.78 100.686,123.622 101.69,121.724 C103.189,124.184 105.306,126.075 107.748,127.287 C107.714,127.544 107.691,127.805 107.691,128.071 C107.691,128.196 107.702,128.318 107.71,128.441 C105.223,129.596 103.149,131.421 101.705,133.757 L101.516,134.057 C100.625,132.249 100.111,130.222 100.111,128.072 Z" id="Shape"></path>
                <path d="M147.905,188.9 L159.565,188.9 C160.118,188.9 160.565,188.452 160.565,187.9 L160.565,176.24 C160.565,175.688 160.118,175.24 159.565,175.24 L147.905,175.24 C147.352,175.24 146.905,175.688 146.905,176.24 L146.905,187.9 C146.905,188.452 147.352,188.9 147.905,188.9 Z M148.905,177.24 L158.565,177.24 L158.565,186.9 L148.905,186.9 L148.905,177.24 Z" id="Shape"></path>
                <path d="M147.905,205.65 L159.565,205.65 C160.118,205.65 160.565,205.202 160.565,204.65 L160.565,192.99 C160.565,192.438 160.118,191.99 159.565,191.99 L147.905,191.99 C147.352,191.99 146.905,192.438 146.905,192.99 L146.905,204.65 C146.905,205.202 147.352,205.65 147.905,205.65 Z M148.905,193.99 L158.565,193.99 L158.565,203.65 L148.905,203.65 L148.905,193.99 Z" id="Shape"></path>
                <path d="M28.974,216.891 C28.603,216.226 27.9,215.77 27.086,215.77 C25.889,215.77 24.915,216.744 24.915,217.94 C24.915,219.136 25.889,220.11 27.086,220.11 C27.935,220.11 28.665,219.615 29.021,218.902 C30.683,218.722 32.172,217.809 33.081,216.373 L35.211,212.992 C38.075,216.581 42.477,218.89 47.415,218.89 C52.331,218.89 56.717,216.602 59.582,213.042 L60.621,215.016 C61.771,217.199 63.922,218.624 66.342,218.877 C66.377,218.952 66.404,219.031 66.448,219.101 C66.462,219.123 66.473,219.146 66.488,219.167 C66.587,219.311 66.707,219.437 66.838,219.553 C66.878,219.589 66.918,219.622 66.961,219.655 C67.108,219.768 67.266,219.869 67.439,219.942 C67.441,219.943 67.443,219.945 67.445,219.946 C67.521,219.978 67.6,219.994 67.678,220.017 C67.734,220.033 67.787,220.056 67.845,220.068 C67.989,220.097 68.134,220.113 68.278,220.113 C68.424,220.113 68.569,220.097 68.712,220.067 C68.721,220.065 68.729,220.061 68.737,220.059 C68.866,220.031 68.993,219.993 69.115,219.941 C69.146,219.928 69.174,219.908 69.205,219.893 C69.301,219.847 69.396,219.801 69.485,219.741 C69.546,219.7 69.598,219.649 69.654,219.602 C69.705,219.559 69.761,219.523 69.808,219.475 C69.81,219.473 69.811,219.471 69.812,219.469 C69.944,219.336 70.052,219.182 70.146,219.019 C70.17,218.977 70.193,218.936 70.215,218.892 C70.296,218.727 70.364,218.555 70.401,218.37 C70.403,218.358 70.402,218.346 70.405,218.334 C70.429,218.206 70.445,218.074 70.445,217.939 C70.445,217.893 70.434,217.851 70.432,217.806 C70.429,217.758 70.424,217.711 70.417,217.662 C70.392,217.472 70.351,217.287 70.28,217.115 C70.279,217.113 70.279,217.111 70.279,217.109 C70.279,217.109 70.278,217.108 70.278,217.108 C70.204,216.931 70.102,216.771 69.986,216.621 C69.955,216.58 69.923,216.542 69.889,216.504 C69.771,216.372 69.643,216.249 69.497,216.149 C69.477,216.136 69.456,216.126 69.436,216.113 C69.295,216.023 69.142,215.954 68.982,215.898 C68.935,215.882 68.888,215.867 68.839,215.854 C68.658,215.805 68.47,215.77 68.273,215.77 C68.273,215.77 68.273,215.77 68.272,215.77 C68.272,215.77 68.272,215.77 68.272,215.77 C67.463,215.77 66.764,216.221 66.391,216.879 C64.695,216.652 63.199,215.624 62.387,214.084 L60.858,211.179 C62.23,208.856 63.031,206.158 63.031,203.27 C63.031,200.51 62.304,197.919 61.043,195.666 L63.916,191.106 C64.474,190.226 65.375,189.653 66.387,189.509 C66.408,189.548 66.42,189.592 66.444,189.63 C66.458,189.652 66.469,189.675 66.484,189.696 C66.583,189.84 66.703,189.966 66.834,190.082 C66.874,190.118 66.914,190.151 66.957,190.184 C67.104,190.297 67.262,190.398 67.435,190.471 C67.437,190.472 67.439,190.474 67.441,190.475 C67.517,190.507 67.596,190.523 67.674,190.546 C67.73,190.562 67.783,190.585 67.841,190.597 C67.985,190.626 68.13,190.642 68.274,190.642 C68.42,190.642 68.565,190.626 68.708,190.596 C68.717,190.594 68.725,190.59 68.733,190.588 C68.862,190.56 68.989,190.522 69.111,190.47 C69.142,190.457 69.17,190.437 69.201,190.422 C69.297,190.376 69.392,190.33 69.481,190.27 C69.542,190.229 69.594,190.178 69.65,190.131 C69.701,190.088 69.757,190.052 69.804,190.004 C69.806,190.002 69.807,190 69.808,189.998 C69.94,189.865 70.048,189.711 70.142,189.548 C70.166,189.506 70.189,189.465 70.211,189.421 C70.292,189.256 70.36,189.084 70.397,188.899 C70.399,188.887 70.398,188.875 70.401,188.863 C70.425,188.735 70.441,188.603 70.441,188.468 C70.441,188.422 70.43,188.38 70.428,188.335 C70.425,188.287 70.42,188.24 70.413,188.191 C70.388,188.001 70.347,187.816 70.276,187.644 C70.275,187.642 70.275,187.64 70.275,187.638 C70.275,187.638 70.274,187.637 70.274,187.637 C70.2,187.46 70.098,187.3 69.982,187.15 C69.951,187.109 69.919,187.071 69.885,187.033 C69.767,186.901 69.639,186.778 69.493,186.678 C69.473,186.665 69.452,186.655 69.432,186.642 C69.291,186.552 69.138,186.483 68.978,186.427 C68.931,186.411 68.884,186.396 68.835,186.383 C68.654,186.334 68.466,186.299 68.269,186.299 C68.269,186.299 68.269,186.299 68.268,186.299 C68.268,186.299 68.268,186.299 68.268,186.299 C67.42,186.299 66.691,186.793 66.335,187.504 C64.653,187.671 63.143,188.585 62.222,190.036 L59.828,193.836 C56.972,190.085 52.475,187.649 47.407,187.649 C42.68,187.649 38.446,189.768 35.579,193.097 L34.682,191.393 C33.544,189.231 31.422,187.81 29.029,187.538 C28.679,186.808 27.939,186.299 27.077,186.299 C25.88,186.299 24.906,187.273 24.906,188.469 C24.906,189.665 25.88,190.639 27.077,190.639 C27.884,190.639 28.582,190.19 28.956,189.534 C30.633,189.774 32.109,190.8 32.912,192.326 L34.255,194.878 C32.701,197.305 31.787,200.181 31.787,203.271 C31.787,206.166 32.593,208.869 33.97,211.196 L31.381,215.305 C30.843,216.169 29.964,216.735 28.974,216.891 Z M47.415,216.89 C42.857,216.89 38.824,214.631 36.351,211.182 L37.086,210.015 C38.258,208.12 39.905,206.615 41.857,205.629 C42.778,207.79 44.922,209.31 47.416,209.31 C49.883,209.31 52.006,207.821 52.943,205.696 C55.253,206.834 57.226,208.678 58.546,211.095 C56.077,214.594 52.012,216.89 47.415,216.89 Z M51.079,204.947 C50.44,206.337 49.042,207.31 47.415,207.31 C45.768,207.31 44.354,206.316 43.726,204.9 C46.213,204.184 48.755,204.228 51.079,204.947 Z M43.889,201.34 C44.576,200.09 45.89,199.23 47.415,199.23 C49.064,199.23 50.481,200.226 51.108,201.646 C48.65,202.254 46.158,202.113 43.889,201.34 Z M61.035,203.27 C61.035,205.365 60.546,207.343 59.697,209.118 C58.122,206.696 55.934,204.861 53.432,203.721 C53.443,203.571 53.455,203.422 53.455,203.27 C53.455,203.176 53.445,203.084 53.441,202.99 L53.464,202.981 C56.088,201.873 58.272,200.021 59.799,197.634 C60.585,199.354 61.035,201.259 61.035,203.27 Z M47.415,189.65 C52.103,189.65 56.244,192.031 58.696,195.647 L58.225,196.395 C56.966,198.433 55.154,200.016 53.006,200.992 C52.104,198.789 49.94,197.231 47.416,197.231 C45.067,197.231 43.033,198.582 42.034,200.545 C39.776,199.349 37.856,197.469 36.601,195.026 C39.091,191.765 43.006,189.65 47.415,189.65 Z M33.796,203.27 C33.796,200.978 34.371,198.82 35.375,196.922 C36.874,199.382 38.991,201.273 41.433,202.485 C41.399,202.742 41.376,203.003 41.376,203.269 C41.376,203.394 41.387,203.516 41.395,203.639 C38.908,204.794 36.834,206.619 35.39,208.955 L35.201,209.255 C34.31,207.447 33.796,205.42 33.796,203.27 Z" id="Shape"></path>
                <path d="M95.289,216.891 C94.918,216.226 94.215,215.77 93.401,215.77 C92.204,215.77 91.23,216.744 91.23,217.94 C91.23,219.136 92.204,220.11 93.401,220.11 C94.25,220.11 94.98,219.615 95.336,218.902 C96.998,218.722 98.487,217.809 99.396,216.373 L101.526,212.992 C104.39,216.581 108.792,218.89 113.73,218.89 C118.646,218.89 123.032,216.602 125.897,213.042 L126.936,215.016 C128.086,217.199 130.237,218.624 132.657,218.877 C132.692,218.952 132.719,219.031 132.763,219.101 C132.777,219.123 132.788,219.146 132.803,219.167 C132.902,219.311 133.022,219.437 133.153,219.553 C133.193,219.589 133.233,219.622 133.276,219.655 C133.423,219.768 133.581,219.869 133.754,219.942 C133.756,219.943 133.758,219.945 133.76,219.946 C133.836,219.978 133.915,219.994 133.993,220.017 C134.049,220.033 134.102,220.056 134.16,220.068 C134.304,220.097 134.449,220.113 134.593,220.113 C134.739,220.113 134.884,220.097 135.027,220.067 C135.036,220.065 135.044,220.061 135.052,220.059 C135.181,220.031 135.308,219.993 135.43,219.941 C135.461,219.928 135.489,219.908 135.52,219.893 C135.616,219.847 135.711,219.801 135.8,219.741 C135.861,219.7 135.913,219.649 135.969,219.602 C136.02,219.559 136.076,219.523 136.123,219.475 C136.125,219.473 136.126,219.471 136.127,219.469 C136.259,219.336 136.367,219.182 136.461,219.019 C136.485,218.977 136.508,218.936 136.53,218.892 C136.611,218.727 136.679,218.555 136.716,218.37 C136.718,218.358 136.717,218.346 136.72,218.334 C136.744,218.206 136.76,218.074 136.76,217.939 C136.76,217.893 136.749,217.851 136.747,217.806 C136.744,217.758 136.739,217.711 136.732,217.662 C136.707,217.472 136.666,217.287 136.595,217.115 C136.594,217.113 136.594,217.111 136.594,217.109 C136.594,217.109 136.593,217.108 136.593,217.108 C136.519,216.931 136.417,216.771 136.301,216.621 C136.27,216.58 136.238,216.542 136.204,216.504 C136.086,216.372 135.958,216.249 135.812,216.149 C135.792,216.136 135.771,216.126 135.751,216.113 C135.61,216.023 135.457,215.954 135.297,215.898 C135.25,215.882 135.203,215.867 135.154,215.854 C134.973,215.805 134.785,215.77 134.588,215.77 C134.588,215.77 134.588,215.77 134.587,215.77 C134.587,215.77 134.587,215.77 134.587,215.77 C133.778,215.77 133.079,216.221 132.706,216.879 C131.01,216.652 129.514,215.624 128.702,214.084 L127.173,211.179 C128.545,208.856 129.346,206.158 129.346,203.27 C129.346,200.51 128.619,197.919 127.358,195.666 L130.231,191.106 C130.789,190.226 131.69,189.653 132.702,189.509 C132.723,189.548 132.735,189.592 132.759,189.63 C132.773,189.652 132.784,189.675 132.799,189.696 C132.898,189.84 133.018,189.966 133.149,190.082 C133.189,190.118 133.229,190.151 133.272,190.184 C133.419,190.297 133.577,190.398 133.75,190.471 C133.752,190.472 133.754,190.474 133.756,190.475 C133.832,190.507 133.911,190.523 133.989,190.546 C134.045,190.562 134.098,190.585 134.156,190.597 C134.3,190.626 134.445,190.642 134.589,190.642 C134.735,190.642 134.88,190.626 135.023,190.596 C135.032,190.594 135.04,190.59 135.048,190.588 C135.177,190.56 135.304,190.522 135.426,190.47 C135.457,190.457 135.485,190.437 135.516,190.422 C135.612,190.376 135.707,190.33 135.796,190.27 C135.857,190.229 135.909,190.178 135.965,190.131 C136.016,190.088 136.072,190.052 136.119,190.004 C136.121,190.002 136.122,190 136.123,189.998 C136.255,189.865 136.363,189.711 136.457,189.548 C136.481,189.506 136.504,189.465 136.526,189.421 C136.607,189.256 136.675,189.084 136.712,188.899 C136.714,188.887 136.713,188.875 136.716,188.863 C136.74,188.735 136.756,188.603 136.756,188.468 C136.756,188.422 136.745,188.38 136.743,188.335 C136.74,188.287 136.735,188.24 136.728,188.191 C136.703,188.001 136.662,187.816 136.591,187.644 C136.59,187.642 136.59,187.64 136.59,187.638 C136.59,187.638 136.589,187.637 136.589,187.637 C136.515,187.46 136.413,187.3 136.297,187.15 C136.266,187.109 136.234,187.071 136.2,187.033 C136.082,186.901 135.954,186.778 135.808,186.678 C135.788,186.665 135.767,186.655 135.747,186.642 C135.606,186.552 135.453,186.483 135.293,186.427 C135.246,186.411 135.199,186.396 135.15,186.383 C134.969,186.334 134.781,186.299 134.584,186.299 C134.584,186.299 134.584,186.299 134.583,186.299 C134.583,186.299 134.583,186.299 134.583,186.299 C133.735,186.299 133.006,186.793 132.65,187.504 C130.968,187.671 129.458,188.585 128.537,190.036 L126.143,193.836 C123.287,190.085 118.79,187.649 113.722,187.649 C108.995,187.649 104.761,189.768 101.894,193.097 L100.997,191.393 C99.859,189.231 97.737,187.81 95.344,187.538 C94.994,186.808 94.254,186.299 93.392,186.299 C92.195,186.299 91.221,187.273 91.221,188.469 C91.221,189.665 92.195,190.639 93.392,190.639 C94.199,190.639 94.897,190.19 95.271,189.534 C96.948,189.774 98.424,190.8 99.227,192.326 L100.57,194.878 C99.016,197.305 98.102,200.181 98.102,203.271 C98.102,206.166 98.908,208.869 100.285,211.196 L97.696,215.305 C97.158,216.169 96.279,216.735 95.289,216.891 Z M113.73,216.89 C109.172,216.89 105.139,214.631 102.666,211.182 L103.401,210.015 C104.573,208.12 106.22,206.615 108.172,205.629 C109.093,207.79 111.237,209.31 113.731,209.31 C116.198,209.31 118.321,207.821 119.258,205.696 C121.568,206.834 123.541,208.678 124.861,211.095 C122.392,214.594 118.328,216.89 113.73,216.89 Z M117.395,204.947 C116.756,206.337 115.358,207.31 113.731,207.31 C112.084,207.31 110.67,206.316 110.042,204.9 C112.528,204.184 115.071,204.228 117.395,204.947 Z M110.204,201.34 C110.891,200.09 112.205,199.23 113.73,199.23 C115.379,199.23 116.796,200.226 117.423,201.646 C114.965,202.254 112.473,202.113 110.204,201.34 Z M127.35,203.27 C127.35,205.365 126.861,207.343 126.012,209.118 C124.437,206.696 122.249,204.861 119.747,203.721 C119.758,203.571 119.77,203.422 119.77,203.27 C119.77,203.176 119.76,203.084 119.756,202.99 L119.779,202.981 C122.403,201.873 124.587,200.021 126.114,197.634 C126.9,199.354 127.35,201.259 127.35,203.27 Z M113.73,189.65 C118.418,189.65 122.559,192.031 125.011,195.647 L124.54,196.395 C123.281,198.433 121.469,200.016 119.321,200.992 C118.419,198.789 116.255,197.231 113.731,197.231 C111.382,197.231 109.348,198.582 108.349,200.545 C106.091,199.349 104.171,197.469 102.916,195.026 C105.407,191.765 109.321,189.65 113.73,189.65 Z M100.111,203.27 C100.111,200.978 100.686,198.82 101.69,196.922 C103.189,199.382 105.306,201.273 107.748,202.485 C107.714,202.742 107.691,203.003 107.691,203.269 C107.691,203.394 107.702,203.516 107.71,203.639 C105.223,204.794 103.149,206.619 101.705,208.955 L101.516,209.255 C100.625,207.447 100.111,205.42 100.111,203.27 Z" id="Shape"></path>
            </g>
        </g>
    </g>
</svg>
