<svg viewBox="0 0 100 69" version="1.1" xmlns="http://www.w3.org/2000/svg" xmlns:xlink="http://www.w3.org/1999/xlink">
    <g id="Welcome" stroke="none" stroke-width="1" fill="none" fill-rule="evenodd">
        <g id="Desktop-HD-Copy-2" transform="translate(-651.000000, -2961.000000)" fill="#FFFFFF">
            <g id="Group-14" transform="translate(651.000000, 2961.000000)">
                <rect id="Rectangle-9" transform="translate(91.000000, 29.000000) scale(-1, 1) rotate(45.000000) translate(-91.000000, -29.000000) " x="88" y="18" width="6" height="22" rx="3"></rect>
                <rect id="Rectangle-9" transform="translate(85.000000, 36.000000) scale(-1, 1) rotate(90.000000) translate(-85.000000, -36.000000) " x="82" y="25" width="6" height="22" rx="3"></rect>
                <rect id="Rectangle-9" transform="translate(91.000000, 42.000000) scale(-1, -1) rotate(45.000000) translate(-91.000000, -42.000000) " x="88" y="31" width="6" height="22" rx="3"></rect>
                <path d="M63.48,34.4150192 C63.48,39.2582992 62.2770909,43.8265585 60.1554223,47.84 C56.0618502,44.2539215 51.1665066,41.5836568 45.8306931,40.0154859 C48.8375878,37.0551171 50.6365307,32.9612308 50.6365307,28.562157 C50.6365307,19.6908549 43.397897,12.4734477 34.5,12.4734477 C25.6023551,12.4734477 18.3637214,19.6908549 18.3637214,28.562157 C18.3637214,32.9612308 20.1626643,37.0551171 23.1693069,40.0154859 C17.8334934,41.5836568 12.9381498,44.2539215 8.84457765,47.84 C6.72316127,43.8265585 5.52,39.2585506 5.52,34.4152706 C5.52,18.4821717 18.5202937,5.52 34.5,5.52 C50.4794542,5.52 63.48,18.4819204 63.48,34.4150192 M34.96,63.48 C25.6443219,63.48 17.3304393,59.1304691 11.96,52.3652931 C17.0276065,47.7080351 23.6346132,44.7182875 30.7970683,43.8826296 C32.0305768,43.7385331 33.0002536,42.7656284 33.1348459,41.5367496 C33.2694383,40.3083781 32.5330039,39.1500253 31.3596542,38.7451346 C26.9415578,37.2209595 23.9728785,33.0688001 23.9728785,28.4143327 C23.9728785,22.3851141 28.9015592,17.48 34.96,17.48 C41.0184408,17.48 45.9471215,22.3851141 45.9471215,28.4143327 C45.9471215,33.0688001 42.9786971,37.2207058 38.5603458,38.7451346 C37.3867411,39.1500253 36.6503068,40.3083781 36.7848991,41.5367496 C36.9192366,42.7656284 37.8891683,43.7387868 39.1226768,43.8826296 C46.2851319,44.7182875 52.8921386,47.7080351 57.96,52.3652931 C52.5893058,59.1304691 44.2756781,63.48 34.96,63.48 M0,34.500254 C0,53.5232553 15.4768017,69 34.500127,69 C53.5234523,69 69,53.5232553 69,34.500254 C69,15.4767447 53.5234523,0 34.500127,0 C15.4768017,0 0,15.4767447 0,34.500254" id="Fill-4"></path>
            </g>
        </g>
    </g>
</svg>
