<svg viewBox="0 0 122 86" version="1.1" xmlns="http://www.w3.org/2000/svg" xmlns:xlink="http://www.w3.org/1999/xlink">
    <g id="Welcome" stroke="none" stroke-width="1" fill="none" fill-rule="evenodd">
        <g id="Desktop-HD-Copy-2" transform="translate(-630.000000, -1905.000000)" fill="#FFFFFF">
            <g id="Group-7" transform="translate(0.000000, 1610.000000)">
                <path d="M723.102618,353.011731 C718.984925,347.004212 713.176036,342.268873 706.337724,339.300451 C706.337724,338.947068 706.411255,338.523008 706.411255,338.169624 C706.411255,337.956887 706.411255,337.674887 706.337724,337.462857 L706.411255,337.462857 C713.396627,334.706466 719.279046,329.97042 723.396003,323.892931 C725.60191,328.345563 726.704864,333.222255 726.704864,338.169624 C726.704864,343.329023 725.455585,348.417746 723.102618,353.011731 M690.234603,372.801207 C678.469765,372.801207 667.44023,367.429071 660.601918,358.312483 L662.587235,355.344062 C665.675505,350.538047 670.160849,346.721505 675.381496,344.177144 C678.984477,352.092227 688.616938,355.697446 696.778794,352.233581 C700.455306,350.678693 703.396515,347.851625 705.08771,344.389174 C711.484841,347.357595 716.705487,352.163611 720.087143,358.099747 C713.176036,367.359101 702.072971,372.801207 690.234603,372.801207 M658.02836,352.586964 L657.513649,353.365114 C655.013621,348.699746 653.690076,343.470377 653.690076,338.169624 C653.690076,332.515488 655.160681,327.001999 657.95483,322.05463 C661.851932,328.133533 667.51376,333.080902 674.205012,336.18997 C674.131482,336.826767 674.057951,337.533534 674.057951,338.169624 C674.057951,338.523008 674.057951,338.805008 674.131482,339.088421 C667.51376,341.985459 661.925463,346.650828 658.02836,352.586964 M700.014124,342.410226 C697.440566,347.639595 691.043436,349.901956 685.602198,347.428272 C683.249231,346.368121 681.410975,344.530527 680.308021,342.268873 C686.778682,340.501955 693.616994,340.571925 700.014124,342.410226 M680.749203,333.292932 C683.616882,328.274886 690.234603,326.436585 695.45525,329.263653 C697.514096,330.323804 699.131761,332.020751 700.087654,334.069669 C693.764054,335.554586 686.999273,335.271173 680.749203,333.292932 M690.234603,303.538041 C702.293561,303.538041 713.617218,309.192177 720.454794,318.804208 L719.205515,320.712479 C715.823125,325.871878 710.970129,329.90045 705.234771,332.374135 C701.77885,324.387668 692.219919,320.712479 683.911003,324.034284 C680.381552,325.447818 677.513872,327.992179 675.822677,331.242601 C669.572607,328.133533 664.499021,323.186164 661.263691,317.178644 C668.175533,308.556087 678.910947,303.538041 690.234603,303.538041 M751.92647,375.062155 C751.85294,374.921508 751.92647,374.850124 751.85294,374.708771 C751.779409,374.214741 751.705144,373.789974 751.485288,373.295237 C751.264698,372.871884 751.044107,372.447823 750.676456,372.023056 C750.60219,371.953087 750.529395,371.811733 750.382335,371.741056 C750.088214,371.387673 749.720563,371.104966 749.352912,370.821553 C749.279381,370.821553 749.279381,370.751583 749.205851,370.751583 C748.8382,370.539553 748.396283,370.327522 747.955837,370.186169 C747.808777,370.114786 747.735246,370.114786 747.588186,370.044816 C747.073474,369.902756 746.558027,369.832786 746.044051,369.832786 C743.984469,369.832786 741.999888,370.892936 740.970465,372.659854 C736.41159,372.09444 732.440958,369.479402 730.235051,365.5208 L726.264418,358.312483 C733.838032,346.226061 734.057887,331.101954 726.77913,318.874178 L734.499804,307.283906 C735.970409,305.092222 738.396907,303.608718 741.117525,303.255334 C741.191056,303.325304 741.191056,303.466658 741.264586,303.538041 C741.338116,303.608718 741.338116,303.678688 741.410911,303.678688 C741.705767,304.032071 741.999888,304.385455 742.367539,304.668868 C742.513864,304.738838 742.58813,304.810222 742.66166,304.951575 C743.029311,305.233575 743.470493,305.516989 743.911674,305.658342 C744.132265,305.729019 744.35212,305.798989 744.499916,305.870372 C744.646977,305.940342 744.794037,305.940342 744.941097,306.011726 C745.308749,306.082402 745.6764,306.152372 746.117581,306.152372 C746.485232,306.152372 746.925679,306.082402 747.29333,306.011726 L747.367595,306.011726 C747.735246,305.940342 748.028632,305.870372 748.396283,305.729019 C748.470549,305.729019 748.544079,305.658342 748.617609,305.586959 C748.91173,305.445605 749.131586,305.375635 749.352912,305.233575 C749.499237,305.092222 749.647032,305.022252 749.794093,304.880192 C749.941153,304.738838 750.088214,304.668868 750.234539,304.526808 C750.60219,304.173425 750.897046,303.820041 751.117637,303.396688 C751.191167,303.255334 751.264698,303.184658 751.264698,303.043304 C751.485288,302.618537 751.632349,302.195184 751.779409,301.69974 L751.779409,301.62977 C751.85294,301.276387 751.85294,300.992973 751.92647,300.63959 C751.92647,300.498236 751.92647,300.428266 751.85294,300.286206 C751.779409,300.144853 751.85294,300.074883 751.779409,299.932823 C751.705144,299.438086 751.632349,299.014732 751.411758,298.519289 C751.191167,298.095935 750.969841,297.671168 750.60219,297.247815 C750.529395,297.177138 750.455865,297.035785 750.308805,296.964401 C750.014684,296.611018 749.647032,296.329018 749.279381,296.045604 C749.205851,296.045604 749.205851,295.975634 749.131586,295.975634 C748.763934,295.763604 748.323488,295.550867 747.882307,295.410221 C747.735246,295.338837 747.660981,295.338837 747.514656,295.268867 C746.999944,295.127514 746.485232,295.056837 745.970521,295.056837 C743.764614,295.056837 741.778562,296.257634 740.749874,298.095935 C736.263794,298.519289 732.146837,300.85162 729.720339,304.526808 L723.323209,314.210223 C709.352464,296.541048 682.881579,293.218536 664.499021,306.930523 C662.293114,308.556087 660.307797,310.392974 658.543072,312.372629 L656.116574,308.060643 C653.028304,302.548567 647.366476,298.872672 640.969346,298.165905 C639.645802,295.410221 636.189881,294.208717 633.322201,295.550867 C630.454522,296.894431 629.204508,300.144853 630.528052,302.901951 C631.851597,305.658342 635.307518,306.859139 638.175197,305.516989 C639.27815,305.022252 640.160513,304.244808 640.748755,303.255334 C645.234099,303.820041 649.204732,306.505756 651.337109,310.323004 L654.94009,316.825261 C646.410583,329.335037 646.116462,345.519294 654.204788,358.312483 L647.292946,368.772635 C645.822341,370.962906 643.469374,372.447823 640.822285,372.801207 C639.27815,370.114786 635.822229,369.195989 633.02808,370.680906 C630.233932,372.165117 629.278038,375.486922 630.822173,378.172636 C632.366308,380.857644 635.822229,381.776441 638.616378,380.292937 C639.645802,379.727524 640.454634,378.949373 640.969346,377.889223 C645.45469,377.465869 649.425323,375.062155 651.85182,371.45835 L657.587179,362.835086 C672.219695,380.22226 698.76411,382.907975 716.852548,368.772635 C719.058455,367.005718 721.117301,365.097447 722.955557,362.906469 L725.749706,367.924515 C728.837976,373.43659 734.573334,377.112486 741.04326,377.748576 C741.117525,377.960606 741.191056,378.101959 741.338116,378.31399 C741.338116,378.383959 741.410911,378.455343 741.485176,378.455343 C741.778562,378.808726 742.073418,379.16211 742.44107,379.44411 C742.58813,379.515493 742.66166,379.58617 742.73519,379.727524 C743.102842,380.009524 743.544023,380.292937 743.984469,380.434291 C744.205795,380.50426 744.426386,380.575644 744.573446,380.646321 C744.719771,380.716291 744.867567,380.716291 745.014628,380.787674 C745.382279,380.857644 745.74993,380.929027 746.190376,380.929027 C746.558027,380.929027 746.999944,380.857644 747.367595,380.787674 L747.441125,380.787674 C747.808777,380.716291 748.102898,380.646321 748.470549,380.50426 C748.544079,380.50426 748.617609,380.434291 748.691139,380.362907 C748.98526,380.22226 749.205851,380.150877 749.426442,380.009524 C749.573502,379.868877 749.720563,379.797493 749.866888,379.65614 C750.014684,379.515493 750.161744,379.44411 750.308805,379.302757 C750.676456,378.949373 750.969841,378.59599 751.191167,378.172636 C751.264698,378.030576 751.337493,377.960606 751.337493,377.819253 C751.558819,377.395192 751.705144,376.970425 751.85294,376.475689 L751.85294,376.405719 C751.92647,376.052335 751.92647,375.768922 752,375.415538 C752,375.274891 752,375.203508 751.92647,375.062155" id="Fill-1"></path>
            </g>
        </g>
    </g>
</svg>
