<svg viewBox="0 0 168 168" version="1.1" xmlns="http://www.w3.org/2000/svg" xmlns:xlink="http://www.w3.org/1999/xlink">
    <g id="Page-1" stroke="none" stroke-width="1" fill="none" fill-rule="evenodd">
        <g id="Parameters_Icon" fill-rule="nonzero" fill="#FFAF0D">
            <path d="M135.723,0.672 L31.839,0.672 C14.504,0.672 0.399,14.775 0.399,32.11 L0.399,135.996 C0.399,153.331 14.504,167.438 31.839,167.438 L135.723,167.438 C153.058,167.438 167.163,153.332 167.163,135.996 L167.163,32.11 C167.163,14.775 153.058,0.672 135.723,0.672 Z M159.774,135.997 C159.774,149.259 148.985,160.05 135.723,160.05 L31.839,160.05 C18.577,160.05 7.788,149.259 7.788,135.997 L7.788,32.11 C7.788,18.848 18.577,8.061 31.839,8.061 L135.723,8.061 C148.985,8.061 159.774,18.848 159.774,32.11 L159.774,135.997 Z" id="Shape"></path>
            <path d="M127.47,58.646 L132.561,53.555 L114.022,35.015 L108.931,40.106 C104.721,37.617 100.215,35.748 95.478,34.525 L95.478,27.346 L69.24,27.346 L69.24,34.525 C64.501,35.748 59.995,37.617 55.787,40.106 L50.698,35.015 L32.156,53.555 L37.247,58.646 C34.756,62.856 32.887,67.362 31.666,72.099 L24.487,72.099 L24.487,98.338 L31.666,98.338 C32.887,103.075 34.758,107.581 37.247,111.791 L32.156,116.882 L50.696,135.419 L55.785,130.332 C59.993,132.821 64.5,134.69 69.24,135.91 L69.24,143.09 L95.478,143.09 L95.478,135.91 C100.219,134.687 104.723,132.822 108.931,130.332 L114.022,135.419 L132.58,116.864 L127.412,111.77 C129.898,107.567 131.763,103.068 132.982,98.338 L140.23,98.338 L140.23,72.099 L133.051,72.099 C131.83,67.362 129.961,62.856 127.47,58.646 Z M132.842,90.95 L126.997,90.95 L126.411,93.93 C125.253,99.8 122.975,105.291 119.637,110.252 L117.925,112.795 L122.092,116.901 L114.021,124.972 L109.915,120.87 L107.393,122.566 C102.436,125.903 96.943,128.183 91.068,129.338 L88.088,129.926 L88.088,135.702 L76.628,135.702 L76.628,129.926 L73.648,129.338 C67.771,128.184 62.278,125.903 57.321,122.566 L54.797,120.87 L50.695,124.972 L42.603,116.883 L46.707,112.777 L45.01,110.252 C41.673,105.291 39.394,99.8 38.236,93.93 L37.65,90.95 L31.874,90.95 L31.874,79.488 L37.65,79.488 L38.236,76.508 C39.392,70.638 41.671,65.147 45.01,60.186 L46.707,57.661 L42.603,53.555 L50.693,45.463 L54.797,49.572 L57.321,47.873 C62.284,44.532 67.776,42.252 73.648,41.098 L76.628,40.51 L76.628,34.734 L88.088,34.734 L88.088,40.51 L91.068,41.098 C96.938,42.252 102.431,44.533 107.393,47.873 L109.917,49.569 L114.021,45.463 L122.111,53.555 L118.007,57.661 L119.704,60.186 C123.043,65.147 125.321,70.638 126.478,76.508 L127.064,79.488 L132.84,79.488 L132.84,90.95 L132.842,90.95 Z" id="Shape"></path>
            <path d="M82.34,54.634 C65.484,54.634 51.773,68.347 51.773,85.203 C51.773,102.055 65.484,115.768 82.34,115.768 C99.196,115.768 112.909,102.055 112.909,85.203 C112.909,68.347 99.196,54.634 82.34,54.634 Z M82.34,108.379 C69.559,108.379 59.162,97.981 59.162,85.203 C59.162,72.421 69.56,62.023 82.34,62.023 C95.122,62.023 105.52,72.421 105.52,85.203 C105.52,97.981 95.123,108.379 82.34,108.379 Z" id="Shape"></path>
        </g>
    </g>
</svg>
