<svg viewBox="0 0 168 168" version="1.1" xmlns="http://www.w3.org/2000/svg" xmlns:xlink="http://www.w3.org/1999/xlink">
    <g id="Page-1" stroke="none" stroke-width="1" fill="none" fill-rule="evenodd">
        <g id="Re_Icon" fill-rule="nonzero" fill="#FFAF0D">
            <path d="M49.169,45.017 C67.964,28.015 96.093,27.756 115.149,43.275 L100.045,43.848 C98.095,43.925 96.587,45.537 96.665,47.487 C96.744,49.385 98.304,50.866 100.175,50.866 L100.305,50.866 L123.495,50.009 C125.393,49.93 126.874,48.397 126.874,46.499 L126.874,46.083 L126.016,23.154 C125.939,21.204 124.301,19.696 122.377,19.774 C120.427,19.853 118.919,21.463 118.998,23.413 L119.544,37.79 C110.106,30.069 98.486,25.598 86.059,24.973 C70.669,24.193 55.877,29.47 44.465,39.817 C28.764,54.037 22.109,75.666 27.1,96.255 C27.49,97.867 28.919,98.933 30.506,98.933 C30.792,98.933 31.052,98.906 31.338,98.829 C33.21,98.361 34.379,96.463 33.912,94.592 C29.542,76.499 35.365,57.496 49.169,45.017 L49.169,45.017 Z" id="Shape"></path>
            <path d="M140.236,70.598 C139.767,68.726 137.87,67.557 135.999,68.024 C134.127,68.493 132.956,70.39 133.425,72.261 C137.818,90.355 131.969,109.358 118.165,121.837 C108.468,130.598 96.303,134.913 84.188,134.913 C72.619,134.913 61.077,130.988 51.77,123.241 L67.057,121.863 C68.98,121.681 70.41,119.992 70.228,118.042 C70.047,116.092 68.357,114.688 66.407,114.87 L43.296,116.95 C41.372,117.131 39.942,118.821 40.124,120.771 L42.204,143.882 C42.36,145.701 43.893,147.08 45.687,147.08 C45.791,147.08 45.895,147.08 45.999,147.053 C47.922,146.871 49.353,145.182 49.17,143.232 L47.922,129.168 C57.36,136.811 68.927,141.256 81.276,141.881 C82.264,141.933 83.252,141.958 84.213,141.958 C98.538,141.958 112.159,136.707 122.87,127.037 C138.572,112.816 145.227,91.213 140.236,70.598 L140.236,70.598 Z" id="Shape"></path>
            <path d="M135.707,167.438 L31.823,167.438 C14.488,167.438 0.383,153.335 0.383,136 L0.383,32.113 C0.383,14.778 14.488,0.673 31.823,0.673 L135.707,0.673 C153.042,0.673 167.147,14.778 167.147,32.113 L167.147,135.999 C167.147,153.335 153.043,167.438 135.707,167.438 Z M31.823,8.062 C18.561,8.062 7.772,18.851 7.772,32.113 L7.772,135.999 C7.772,149.261 18.561,160.048 31.823,160.048 L135.707,160.048 C148.969,160.048 159.758,149.261 159.758,135.999 L159.758,32.113 C159.758,18.851 148.969,8.062 135.707,8.062 L31.823,8.062 Z" id="Shape"></path>
        </g>
    </g>
</svg>
