<svg viewBox="0 0 168 167" version="1.1" xmlns="http://www.w3.org/2000/svg" xmlns:xlink="http://www.w3.org/1999/xlink">
    <g id="Page-1" stroke="none" stroke-width="1" fill="none" fill-rule="evenodd">
        <g id="Temp_Icon" fill-rule="nonzero" fill="#FFAF0D">
            <path d="M136.004,166.846 L32.119,166.846 C14.784,166.846 0.679,152.743 0.679,135.408 L0.679,31.522 C0.679,14.187 14.784,0.084 32.119,0.084 L136.003,0.084 C153.338,0.084 167.443,14.187 167.443,31.522 L167.443,135.408 C167.444,152.744 153.339,166.846 136.004,166.846 Z M32.119,7.473 C18.857,7.473 8.068,18.262 8.068,31.522 L8.068,135.408 C8.068,148.668 18.857,159.457 32.119,159.457 L136.003,159.457 C149.265,159.457 160.054,148.668 160.054,135.408 L160.054,31.522 C160.054,18.262 149.265,7.473 136.003,7.473 L32.119,7.473 Z" id="Shape"></path>
            <path d="M96.419,92.477 L96.419,35.956 C96.419,28.358 90.237,22.176 82.639,22.176 C75.041,22.176 68.859,28.358 68.859,35.956 L68.859,42.87 C68.856,42.933 68.823,42.985 68.823,43.049 C68.823,43.113 68.856,43.165 68.859,43.228 L68.859,54.988 C68.856,55.051 68.823,55.103 68.823,55.167 C68.823,55.231 68.856,55.283 68.859,55.346 L68.859,92.479 C58.377,98.444 52.748,110.778 55.35,122.719 C58.128,135.456 69.604,144.699 82.639,144.699 C95.674,144.699 107.15,135.456 109.928,122.719 C112.53,110.776 106.902,98.443 96.419,92.477 Z M102.709,121.145 C100.667,130.511 92.225,137.31 82.639,137.31 C73.053,137.31 64.611,130.511 62.569,121.145 C60.529,111.777 65.374,102.081 74.09,98.091 C75.405,97.49 76.247,96.177 76.247,94.732 L76.247,58.86 L82.638,58.86 C84.678,58.86 86.332,57.206 86.332,55.166 C86.332,53.126 84.678,51.472 82.638,51.472 L76.247,51.472 L76.247,46.744 L82.638,46.744 C84.678,46.744 86.332,45.09 86.332,43.05 C86.332,41.01 84.678,39.356 82.638,39.356 L76.247,39.356 L76.247,35.957 C76.247,32.432 79.113,29.566 82.638,29.566 C86.163,29.566 89.029,32.432 89.029,35.957 L89.029,94.733 C89.029,96.178 89.871,97.491 91.186,98.092 C99.904,102.081 104.75,111.777 102.709,121.145 Z" id="Shape"></path>
            <path d="M86.334,101.976 L86.334,67.173 C86.334,65.133 84.68,63.479 82.64,63.479 C80.6,63.479 78.946,65.133 78.946,67.173 L78.946,101.976 C72.508,103.632 67.715,109.436 67.715,116.383 C67.715,124.612 74.411,131.307 82.64,131.307 C90.869,131.307 97.565,124.613 97.565,116.383 C97.565,109.436 92.771,103.631 86.334,101.976 Z M82.639,123.917 C78.483,123.917 75.102,120.536 75.102,116.382 C75.102,112.226 78.482,108.845 82.639,108.845 C86.795,108.845 90.176,112.225 90.176,116.382 C90.176,120.537 86.795,123.917 82.639,123.917 Z" id="Shape"></path>
        </g>
    </g>
</svg>
