<svg viewBox="0 0 168 168" version="1.1" xmlns="http://www.w3.org/2000/svg" xmlns:xlink="http://www.w3.org/1999/xlink">
    <g id="Page-1" stroke="none" stroke-width="1" fill="none" fill-rule="evenodd">
        <g id="Vent_Icon" fill-rule="nonzero" fill="#FFAF0D">
            <path d="M136.243,167.459 L32.358,167.459 C15.023,167.459 0.918,153.356 0.918,136.021 L0.918,32.134 C0.918,14.799 15.023,0.694 32.358,0.694 L136.242,0.694 C153.577,0.694 167.682,14.799 167.682,32.134 L167.682,136.02 C167.683,153.356 153.578,167.459 136.243,167.459 Z M32.358,8.083 C19.096,8.083 8.307,18.872 8.307,32.134 L8.307,136.02 C8.307,149.282 19.096,160.069 32.358,160.069 L136.242,160.069 C149.504,160.069 160.293,149.282 160.293,136.02 L160.293,32.134 C160.293,18.872 149.504,8.083 136.242,8.083 L32.358,8.083 Z" id="Shape"></path>
            <path d="M109.94,77.967 C100.948,77.971 92.415,73.995 84.57,66.148 C77.639,59.217 70.121,56.014 62.193,56.439 C52.059,57.067 44.369,63.586 42.862,65.195 C42.808,65.303 42.748,65.408 42.683,65.509 C41.59,67.234 39.313,67.753 37.585,66.656 C36.387,65.898 35.714,64.481 35.875,63.073 C36.283,59.512 45.241,53.462 52.289,51.005 C61.617,47.744 75.698,46.827 89.794,60.923 C96.328,67.457 103.132,70.751 110.362,70.574 C122.051,70.365 130.786,61.118 130.872,61.028 C132.259,59.531 134.595,59.444 136.089,60.826 C137.584,62.211 137.68,64.538 136.302,66.039 C135.865,66.512 125.441,77.652 110.575,77.963 C110.364,77.967 110.151,77.967 109.94,77.967 Z" id="Shape"></path>
            <path d="M109.94,98.546 C100.948,98.55 92.415,94.574 84.57,86.727 C77.639,79.796 70.121,76.589 62.193,77.018 C52.059,77.646 44.369,84.165 42.862,85.774 C42.808,85.882 42.748,85.987 42.683,86.088 C41.59,87.809 39.313,88.336 37.585,87.235 C36.387,86.477 35.714,85.059 35.875,83.652 C36.283,80.091 45.241,74.041 52.289,71.584 C61.617,68.319 75.698,67.41 89.794,81.502 C96.328,88.036 103.132,91.315 110.362,91.153 C122.051,90.944 130.786,81.697 130.872,81.607 C132.259,80.11 134.595,80.023 136.089,81.405 C137.584,82.79 137.68,85.117 136.302,86.618 C135.865,87.091 125.441,98.231 110.575,98.542 C110.364,98.546 110.151,98.546 109.94,98.546 Z" id="Shape"></path>
            <path d="M109.94,119.121 C100.948,119.125 92.415,115.149 84.57,107.302 C77.639,100.371 70.121,97.168 62.193,97.593 C52.059,98.221 44.369,104.74 42.862,106.349 C42.808,106.457 42.748,106.562 42.683,106.663 C41.59,108.388 39.313,108.907 37.585,107.81 C36.387,107.052 35.714,105.635 35.875,104.227 C36.283,100.666 45.241,94.616 52.289,92.159 C61.617,88.894 75.698,87.981 89.794,102.077 C96.328,108.607 103.132,111.879 110.362,111.728 C122.051,111.519 130.786,102.272 130.872,102.182 C132.259,100.685 134.595,100.595 136.089,101.98 C137.584,103.365 137.68,105.692 136.302,107.193 C135.865,107.666 125.441,118.806 110.575,119.117 C110.364,119.121 110.151,119.121 109.94,119.121 Z" id="Shape"></path>
        </g>
    </g>
</svg>
